<?xml version="1.0" encoding="UTF-8" standalone="no" ?>
<!DOCTYPE svg PUBLIC "-//W3C//DTD SVG 1.1//EN" "http://www.w3.org/Graphics/SVG/1.1/DTD/svg11.dtd">
<svg xmlns="http://www.w3.org/2000/svg" xmlns:xlink="http://www.w3.org/1999/xlink" version="1.1" width="1080" height="1080" viewBox="0 0 1080 1080" xml:space="preserve">
<desc>Created with Fabric.js 5.2.4</desc>
<defs>
</defs>
<g transform="matrix(1 0 0 1 540 540)" id="597c4cf6-7493-4f45-a48f-24fcadd7e1ac"  >
<rect style="stroke: none; stroke-width: 1; stroke-dasharray: none; stroke-linecap: butt; stroke-dashoffset: 0; stroke-linejoin: miter; stroke-miterlimit: 4; fill: rgb(255,255,255); fill-rule: nonzero; opacity: 1; visibility: hidden;" vector-effect="non-scaling-stroke"  x="-540" y="-540" rx="0" ry="0" width="1080" height="1080" />
</g>
<g transform="matrix(1 0 0 1 540 540)" id="5b0a2af2-a8c3-4809-8927-5a658a335bfa"  >
</g>
<g transform="matrix(1.47 0 0 1.47 518.53 595.9)"  >
<g style="opacity: 1;" vector-effect="non-scaling-stroke"   >
		<g transform="matrix(0.13 0 0 -0.13 -452.46 -19.28)"  >
<path style="stroke: none; stroke-width: 1; stroke-dasharray: none; stroke-linecap: butt; stroke-dashoffset: 0; stroke-linejoin: miter; stroke-miterlimit: 4; fill: rgb(249,191,133); fill-rule: nonzero; opacity: 1;" vector-effect="non-scaling-stroke"  transform=" translate(-3005.86, -6523.23)" d="M 2024 12742 C 1838 12676 1696 12510 1654 12310 C 1622 12156 1640 11868 1695 11656 C 1761 11402 1832 11248 2075 10830 C 2275 10486 2334 10296 2334 10000 C 2334 9829 2318 9694 2279 9530 C 2240 9364 2247 9377 2167 9329 C 2128 9306 2057 9261 2010 9230 L 1925 9173 L 1995 9314 C 2209 9746 2272 10261 2147 10567 C 2038 10834 1760 11011 1511 10973 C 1288 10938 1158 10779 1158 10541 C 1158 10438 1179 10362 1226 10298 C 1331 10152 1607 10159 1744 10311 C 1774 10344 1780 10358 1780 10395 C 1780 10420 1777 10440 1774 10440 C 1771 10440 1755 10429 1738 10415 C 1643 10335 1384 10345 1283 10433 C 1236 10475 1217 10520 1231 10557 C 1267 10653 1430 10732 1589 10731 C 1853 10730 2072 10564 2137 10317 C 2187 10126 2126 9811 1984 9528 C 1878 9317 1792 9192 1587 8958 C 1433 8781 1329 8647 1264 8546 L 1215 8467 L 1208 8566 C 1197 8734 1162 8828 1084 8907 C 1014 8976 943 9005 840 9005 C 769 9005 746 9001 699 8979 C 626 8945 571 8894 540 8833 C 518 8791 515 8772 515 8679 C 515 8581 517 8571 542 8533 C 594 8455 706 8439 826 8494 C 912 8533 940 8557 940 8590 C 940 8626 925 8630 784 8630 C 723 8630 658 8635 639 8641 C 598 8655 570 8678 570 8697 C 570 8725 663 8810 728 8842 C 786 8871 804 8875 875 8875 C 971 8875 1033 8851 1097 8788 C 1180 8706 1221 8555 1185 8460 C 1176 8435 1165 8397 1160 8375 C 1155 8353 1138 8297 1121 8250 C 1075 8120 1060 8034 1060 7890 C 1060 7519 1222 7175 1511 6933 L 1591 6866 L 1535 6839 C 1436 6792 1393 6736 1370 6627 C 1346 6511 1381 6405 1513 6187 C 1646 5968 1662 5924 1680 5741 C 1694 5597 1707 5537 1736 5479 C 1787 5376 1878 5322 2011 5313 C 2054 5310 2090 5304 2090 5301 C 2090 5298 2044 5232 1989 5155 C 1886 5010 1821 4890 1801 4807 C 1774 4694 1770 4405 1795 4319 C 1811 4260 1808 4262 1770 4327 C 1594 4638 1225 4740 1036 4529 C 1011 4501 959 4426 921 4361 C 808 4170 765 4138 569 4094 C 429 4064 354 4028 328 3980 C 300 3928 306 3794 339 3725 C 373 3656 475 3557 603 3471 C 662 3431 710 3395 710 3390 C 710 3386 682 3380 648 3376 C 454 3356 298 3302 222 3227 C 94 3102 104 2804 240 2671 C 266 2646 331 2606 415 2565 C 604 2472 645 2424 701 2238 C 713 2198 733 2145 745 2120 L 768 2075 L 669 2073 C 520 2071 330 2050 330 2035 C 330 2028 320 2020 309 2017 C 272 2007 293 1959 379 1852 C 512 1686 576 1644 746 1608 C 868 1583 1033 1581 1100 1605 C 1125 1613 1134 1619 1120 1617 L 1095 1614 L 1095 1727 C 1095 1835 1096 1840 1115 1835 C 1126 1832 1121 1837 1105 1844 C 1088 1852 1018 1863 950 1870 C 690 1893 672 1897 560 1949 C 502 1976 446 2000 435 2003 C 424 2005 441 2010 473 2015 C 556 2026 727 2015 779 1996 C 811 1984 826 1983 830 1991 C 835 1998 851 1995 880 1980 C 990 1924 1151 1906 1280 1935 C 1376 1957 1369 1957 1475 1926 C 1589 1892 1764 1807 1856 1742 C 1945 1679 2050 1582 2050 1564 C 2050 1556 2058 1549 2068 1549 C 2077 1548 2069 1545 2050 1541 C 2012 1534 1993 1500 2027 1500 C 2063 1500 2202 1459 2266 1430 C 2429 1356 2618 1200 2709 1065 C 2820 898 2862 732 2862 450 C 2863 231 2878 237 2887 460 C 2901 816 2812 1078 2607 1283 C 2543 1347 2546 1348 2654 1303 C 2752 1262 2785 1237 2877 1135 C 2887 1123 2891 1120 2887 1126 C 2882 1133 2880 1175 2882 1220 C 2885 1299 2885 1301 2860 1306 C 2812 1315 2744 1339 2665 1373 C 2621 1393 2568 1412 2548 1415 C 2515 1421 2509 1419 2502 1401 C 2495 1380 2494 1380 2456 1406 C 2397 1446 2279 1498 2210 1514 C 2148 1529 2132 1536 2141 1545 C 2144 1547 2242 1560 2360 1572 C 2544 1591 2586 1592 2665 1582 C 2741 1572 2842 1548 2906 1523 C 2916 1520 2920 1526 2920 1543 C 2920 1573 2854 1619 2770 1647 C 2679 1677 2503 1672 2291 1631 C 2146 1604 2115 1601 2104 1612 C 2096 1620 2086 1670 2079 1730 C 2073 1788 2065 1849 2060 1866 L 2052 1897 L 2164 1897 C 2287 1896 2366 1913 2456 1957 C 2523 1990 2584 2047 2678 2167 C 2746 2253 2842 2350 2860 2350 C 2864 2350 2871 2335 2874 2316 C 2890 2233 2972 2170 3085 2155 C 3202 2140 3201 2142 3126 2102 C 3043 2058 2966 1991 2937 1936 C 2908 1879 2908 1790 2938 1732 C 2988 1637 3056 1591 3240 1525 C 3414 1463 3447 1442 3582 1298 C 3685 1188 3713 1165 3776 1134 C 3858 1093 3954 1079 4025 1099 C 4085 1115 4139 1165 4170 1233 L 4196 1292 L 4225 1253 C 4337 1102 4495 1103 4612 1257 C 4631 1284 4678 1361 4715 1430 C 4805 1599 4844 1646 4990 1765 C 5148 1895 5224 1974 5257 2046 C 5280 2096 5282 2111 5278 2193 C 5273 2301 5254 2346 5189 2404 C 5136 2453 5083 2476 4992 2491 L 4920 2503 L 4998 2534 C 5199 2616 5346 2734 5406 2866 C 5419 2893 5435 2950 5441 2992 C 5453 3065 5449 3111 5424 3198 L 5417 3222 L 5533 3214 C 5661 3207 5680 3212 5680 3258 C 5680 3272 5661 3361 5638 3454 C 5600 3609 5596 3637 5596 3755 C 5595 3884 5595 3886 5642 4026 C 5722 4265 5730 4405 5669 4528 C 5634 4599 5594 4632 5517 4651 C 5448 4668 5363 4658 5155 4609 C 4995 4571 4961 4567 4845 4566 C 4648 4565 4570 4592 4570 4663 C 4570 4703 4607 4751 4641 4755 C 4655 4757 4683 4770 4704 4784 C 4802 4850 4941 4857 5234 4809 C 5543 4759 5670 4776 5764 4880 C 5845 4970 5880 5086 5880 5270 C 5880 5431 5860 5560 5784 5890 C 5754 6026 5749 6142 5774 6191 C 5783 6208 5790 6235 5790 6249 C 5790 6264 5799 6283 5810 6293 C 5821 6302 5830 6318 5830 6327 C 5830 6367 5821 6369 5685 6354 C 5613 6347 5445 6340 5310 6340 C 5175 6340 5034 6335 4995 6330 C 4782 6299 4620 6226 4522 6115 C 4425 6005 4379 5865 4360 5620 C 4343 5398 4311 5293 4243 5228 C 4156 5145 4013 5154 3974 5245 C 3950 5304 3957 5421 3996 5616 C 4027 5768 4031 5808 4027 5882 C 4017 6039 3946 6147 3826 6187 L 3797 6196 L 3855 6229 C 3928 6271 3999 6341 4030 6405 C 4053 6450 4055 6467 4055 6585 C 4055 6701 4053 6720 4032 6758 C 4003 6812 3938 6860 3827 6906 C 3660 6976 3623 7014 3574 7165 C 3542 7264 3508 7315 3451 7348 C 3410 7372 3395 7375 3320 7374 C 3255 7374 3219 7367 3167 7348 C 2962 7270 2723 7056 2628 6863 C 2594 6793 2579 6677 2598 6630 C 2607 6610 2609 6618 2609 6679 C 2610 6742 2615 6761 2642 6813 C 2726 6970 3045 7219 3224 7266 C 3290 7284 3325 7283 3388 7265 C 3485 7236 3524 7184 3561 7036 C 3588 6928 3631 6854 3691 6814 C 3716 6797 3784 6764 3841 6740 C 4005 6670 4041 6621 3995 6529 C 3934 6408 3798 6336 3513 6276 C 3398 6252 3389 6251 3324 6265 C 3286 6273 3174 6285 3075 6291 C 2976 6296 2852 6305 2800 6309 C 2748 6313 2704 6316 2702 6314 C 2692 6307 2699 6246 2712 6234 C 2720 6226 2759 6208 2799 6194 C 2859 6173 2908 6166 3073 6154 C 3388 6132 3417 6125 3553 6043 C 3677 5968 3740 5890 3740 5810 C 3740 5740 3719 5715 3619 5665 C 3545 5627 3509 5600 3415 5510 C 3232 5335 3151 5291 2994 5282 C 2773 5270 2564 5373 2485 5533 C 2454 5598 2451 5636 2474 5710 C 2483 5740 2493 5810 2495 5865 C 2500 5969 2493 5964 2470 5847 C 2442 5708 2327 5554 2204 5492 C 2018 5398 1815 5446 1747 5600 C 1736 5624 1714 5721 1698 5815 C 1666 6009 1652 6044 1541 6215 C 1375 6471 1352 6582 1448 6678 C 1484 6714 1557 6757 1566 6747 C 1568 6745 1564 6727 1556 6708 C 1529 6645 1516 6508 1528 6431 C 1544 6338 1566 6290 1640 6192 C 1724 6081 1818 5915 1864 5794 C 1923 5639 1931 5622 1954 5603 C 1972 5588 1973 5588 1960 5602 C 1948 5616 1946 5641 1950 5735 C 1954 5817 1952 5854 1943 5863 C 1937 5870 1920 5916 1906 5965 C 1881 6051 1813 6197 1727 6344 C 1696 6398 1690 6414 1701 6421 C 1729 6439 1869 6490 1908 6496 C 1947 6502 1948 6503 1939 6532 C 1935 6548 1896 6605 1854 6657 L 1777 6753 L 1811 6747 C 1865 6737 2038 6647 2111 6591 C 2148 6564 2180 6544 2184 6547 C 2199 6562 2187 6591 2148 6635 L 2106 6682 L 2151 6678 C 2175 6675 2204 6670 2214 6665 C 2232 6657 2233 6660 2227 6703 C 2223 6729 2201 6787 2178 6832 C 2154 6878 2133 6919 2131 6924 C 2122 6945 2196 6891 2235 6847 C 2286 6791 2310 6726 2319 6621 C 2324 6557 2322 6541 2307 6520 C 2249 6437 2297 6282 2392 6248 C 2407 6243 2431 6222 2446 6202 C 2522 6101 2719 5920 2755 5920 C 2759 5920 2760 5933 2758 5949 L 2754 5979 L 2788 5964 C 2835 5945 2862 5946 2858 5967 C 2854 5987 2828 6002 2747 6031 C 2716 6042 2677 6062 2662 6074 C 2647 6087 2630 6095 2624 6093 C 2618 6091 2578 6123 2534 6164 L 2455 6238 L 2484 6249 C 2535 6269 2570 6301 2600 6354 C 2628 6404 2632 6407 2702 6427 C 2742 6439 2804 6467 2839 6490 C 2917 6541 3232 6848 3228 6869 C 3218 6922 3139 6867 2967 6686 C 2844 6556 2821 6537 2749 6500 C 2661 6457 2640 6452 2640 6475 C 2640 6483 2644 6490 2650 6490 C 2655 6490 2684 6499 2714 6511 C 2766 6530 2769 6532 2759 6556 C 2751 6579 2757 6592 2812 6668 C 2903 6795 2963 6851 3053 6894 C 3114 6924 3147 6933 3207 6937 C 3250 6941 3278 6946 3270 6949 C 3248 6958 3248 7172 3270 7182 C 3297 7194 3206 7190 3139 7176 C 2951 7136 2853 7015 2747 6692 C 2723 6619 2698 6554 2693 6549 C 2687 6543 2654 6528 2619 6515 C 2581 6502 2554 6486 2552 6476 C 2549 6463 2555 6461 2582 6466 C 2608 6471 2613 6470 2604 6460 C 2597 6454 2580 6447 2566 6447 C 2547 6445 2540 6440 2540 6424 C 2540 6401 2526 6386 2495 6376 C 2476 6371 2475 6375 2475 6468 L 2475 6565 L 2405 6565 L 2335 6565 L 2333 6645 C 2331 6736 2307 6814 2260 6879 C 2230 6920 2136 6982 2111 6978 C 2103 6976 2076 6997 2051 7023 C 2015 7062 2009 7073 2021 7081 C 2049 7098 2156 7129 2233 7141 L 2310 7153 L 2310 7260 L 2310 7368 L 2263 7363 C 2003 7341 1922 7300 1884 7174 C 1864 7107 1866 6968 1889 6888 C 1912 6803 1903 6806 1804 6917 C 1671 7065 1629 7134 1628 7201 C 1627 7309 1741 7360 1985 7360 C 2172 7360 2235 7373 2375 7438 C 2518 7505 2589 7516 2656 7482 C 2761 7428 2793 7338 2776 7145 L 2770 7075 L 2790 7116 C 2856 7253 2800 7492 2682 7575 C 2642 7602 2631 7605 2562 7605 C 2491 7605 2476 7601 2368 7553 C 2236 7493 2173 7481 2005 7480 C 1821 7479 1682 7437 1621 7363 L 1592 7328 L 1572 7392 C 1521 7548 1516 7580 1515 7745 C 1515 7935 1533 8015 1609 8176 C 1680 8325 1698 8350 1957 8658 C 2132 8866 2196 8974 2269 9185 L 2311 9305 L 2377 9339 C 2479 9392 2657 9506 2746 9576 C 2909 9702 3005 9842 3030 9988 C 3060 10168 2965 10328 2822 10338 C 2653 10350 2537 10244 2536 10077 C 2536 9990 2550 9960 2589 9960 C 2628 9960 2635 9984 2610 10032 C 2583 10084 2585 10104 2620 10134 C 2685 10189 2836 10207 2917 10171 C 2972 10146 2992 10113 2992 10050 C 2991 9957 2931 9861 2803 9749 C 2714 9671 2355 9432 2343 9443 C 2341 9446 2349 9506 2362 9577 C 2382 9689 2385 9737 2385 9965 C 2385 10197 2383 10237 2362 10340 C 2313 10584 2241 10752 1998 11187 C 1752 11627 1669 11864 1684 12090 C 1693 12243 1731 12349 1809 12448 C 1940 12613 2183 12660 2305 12546 C 2391 12465 2345 12366 2185 12288 C 2094 12244 2083 12236 2052 12196 C 2038 12178 2030 12153 2030 12128 C 2030 12089 2030 12088 2063 12095 C 2214 12128 2327 12202 2366 12295 C 2375 12317 2385 12372 2388 12418 C 2397 12569 2347 12680 2246 12732 C 2189 12761 2090 12766 2024 12742 z M 2180 9233 C 2179 9217 2087 9052 2033 8972 C 2003 8926 1924 8821 1857 8737 C 1713 8556 1623 8421 1570 8308 C 1440 8029 1428 7707 1537 7411 C 1562 7344 1573 7295 1575 7248 C 1579 7147 1628 7053 1760 6899 C 1800 6852 1802 6847 1780 6853 C 1766 6857 1729 6860 1698 6860 L 1641 6860 L 1518 6983 C 1351 7148 1260 7283 1179 7487 C 1100 7686 1072 7883 1105 8015 C 1114 8054 1142 8127 1165 8177 C 1245 8348 1344 8481 1608 8776 C 1682 8858 1762 8952 1787 8985 C 1837 9051 1882 9084 2026 9162 C 2081 9191 2134 9220 2145 9227 C 2169 9241 2180 9242 2180 9233 z M 2383 6438 C 2380 6403 2376 6374 2374 6372 C 2373 6370 2360 6376 2347 6385 C 2300 6415 2303 6446 2356 6481 C 2372 6491 2386 6500 2387 6500 C 2389 6500 2387 6472 2383 6438 z M 5724 6181 C 5715 6101 5734 5954 5776 5769 C 5848 5450 5852 5426 5853 5315 C 5856 5081 5773 4952 5591 4910 C 5530 4896 5403 4900 5156 4925 C 4930 4948 4817 4929 4720 4851 C 4700 4835 4666 4813 4643 4802 C 4569 4764 4532 4687 4549 4609 C 4555 4585 4558 4565 4557 4563 C 4555 4562 4516 4576 4470 4595 C 4370 4635 4266 4655 4194 4646 C 4129 4639 4110 4631 4110 4615 C 4110 4607 4135 4601 4184 4596 C 4293 4586 4384 4558 4548 4481 C 4704 4409 4852 4355 4873 4363 C 4880 4366 4878 4369 4868 4369 C 4855 4370 4850 4378 4850 4399 C 4850 4425 4854 4429 4883 4433 C 4903 4435 4894 4438 4855 4440 C 4798 4442 4801 4443 4915 4460 C 4981 4469 5098 4492 5175 4509 C 5491 4582 5625 4555 5660 4410 C 5678 4336 5666 4258 5612 4095 L 5565 3955 L 5565 3780 C 5566 3634 5569 3589 5588 3505 C 5601 3450 5614 3391 5617 3374 L 5622 3343 L 5480 3338 C 5397 3335 5335 3328 5331 3322 C 5323 3309 5115 3379 5055 3415 C 5003 3445 4958 3494 4882 3601 C 4807 3706 4766 3743 4680 3784 C 4621 3812 4606 3815 4520 3815 C 4438 3815 4417 3811 4368 3788 C 4336 3773 4288 3740 4260 3714 L 4210 3667 L 4141 3714 C 4052 3775 3985 3846 3952 3918 C 3923 3979 3920 4024 3931 4275 C 3934 4347 3931 4381 3922 4395 C 3911 4412 3910 4407 3915 4356 C 3918 4322 3914 4243 3904 4171 C 3895 4101 3890 4008 3892 3962 C 3896 3887 3901 3870 3946 3782 C 3981 3711 4012 3668 4057 3623 L 4119 3561 L 4081 3498 C 4005 3372 3962 3223 3974 3125 L 3981 3075 L 3940 3158 C 3845 3351 3674 3449 3434 3450 C 3291 3450 3189 3400 3174 3321 C 3167 3286 3162 3285 3115 3304 C 3073 3322 2950 3340 2874 3340 C 2827 3340 2820 3338 2820 3320 C 2820 3303 2827 3300 2873 3300 C 2939 3300 3046 3277 3104 3251 C 3163 3226 3243 3150 3291 3077 C 3396 2916 3399 2723 3299 2647 C 3250 2611 3207 2595 3033 2551 C 2790 2488 2777 2480 2598 2260 C 2489 2127 2344 2062 2139 2053 C 2006 2047 1937 2061 1857 2112 C 1809 2143 1740 2221 1740 2245 C 1740 2252 1752 2283 1766 2315 C 1798 2385 1802 2470 1776 2548 C 1766 2577 1756 2599 1754 2597 C 1752 2595 1755 2579 1761 2561 C 1778 2512 1767 2403 1740 2346 C 1717 2298 1717 2298 1704 2322 C 1686 2356 1660 2491 1660 2549 C 1660 2576 1655 2602 1649 2606 C 1634 2615 1646 2427 1666 2325 L 1679 2255 L 1620 2199 C 1553 2136 1461 2084 1355 2048 C 1295 2028 1266 2025 1145 2025 C 1017 2026 999 2028 937 2052 C 789 2111 744 2164 693 2337 C 636 2532 612 2557 388 2659 C 245 2724 165 2818 153 2935 C 146 3003 163 3053 212 3106 C 262 3160 314 3190 415 3223 C 598 3283 737 3299 1150 3308 C 1434 3314 1473 3317 1481 3332 C 1486 3342 1498 3346 1510 3343 C 1525 3339 1530 3343 1530 3358 C 1530 3390 1430 3416 1404 3390 C 1397 3383 1365 3383 1304 3390 C 1255 3395 1171 3400 1117 3400 C 1026 3400 1018 3402 1013 3421 C 1009 3435 969 3460 876 3505 C 780 3552 729 3584 687 3624 L 628 3678 L 652 3693 C 665 3701 709 3727 750 3750 C 848 3804 870 3827 937 3935 C 967 3985 1006 4039 1022 4056 L 1051 4087 L 1125 4060 C 1392 3960 1663 3721 1725 3528 C 1742 3477 1760 3444 1760 3466 C 1760 3480 1715 3602 1695 3641 C 1598 3832 1315 4065 1133 4105 C 1115 4108 1100 4115 1100 4120 C 1100 4127 1160 4159 1200 4173 C 1213 4178 1213 4179 1200 4179 C 1187 4180 1185 4200 1187 4305 C 1189 4446 1190 4445 1114 4411 C 1052 4383 1004 4335 938 4236 C 852 4107 828 4085 710 4025 C 546 3942 516 3898 517 3740 C 518 3683 524 3628 533 3603 C 541 3579 544 3560 540 3560 C 536 3560 499 3593 458 3633 C 377 3712 339 3777 332 3849 C 324 3936 382 3975 555 4000 C 727 4025 784 4065 911 4252 C 957 4319 1018 4399 1047 4430 C 1172 4565 1309 4584 1500 4492 C 1700 4395 1819 4180 1865 3834 C 1873 3774 1880 3703 1881 3675 C 1882 3648 1886 3612 1891 3595 C 1905 3546 1892 3866 1876 3960 C 1857 4071 1851 4138 1859 4142 C 1862 4144 1873 4171 1883 4202 C 1893 4234 1923 4293 1951 4334 C 2069 4511 2260 4622 2420 4607 C 2522 4598 2562 4572 2710 4421 C 2862 4266 2899 4243 3075 4194 C 3211 4157 3290 4120 3338 4072 C 3398 4012 3414 3976 3415 3900 C 3415 3822 3389 3769 3312 3698 C 3202 3595 2945 3505 2610 3453 C 2488 3435 2054 3428 1977 3443 L 1940 3451 L 1940 3416 C 1940 3383 1943 3380 2013 3346 C 2052 3326 2118 3303 2158 3295 C 2465 3232 3090 3373 3283 3550 C 3449 3702 3509 3923 3428 4089 L 3406 4134 L 3472 4194 C 3514 4233 3595 4289 3701 4349 C 3937 4486 4001 4541 4264 4835 C 4522 5122 4799 5392 5141 5687 C 5298 5823 5383 5918 5430 6012 C 5468 6089 5477 6120 5464 6133 C 5461 6136 5432 6104 5400 6062 C 5333 5973 5285 5926 5105 5770 C 4800 5506 4569 5271 4221 4872 C 4109 4742 3916 4550 3899 4550 C 3896 4550 3885 4593 3875 4646 C 3841 4838 3760 4939 3500 5118 C 3426 5168 3349 5224 3330 5240 L 3295 5270 L 3415 5388 C 3517 5488 3549 5514 3630 5556 C 3695 5590 3732 5616 3747 5639 C 3827 5757 3791 5947 3664 6080 C 3627 6119 3612 6141 3621 6144 C 3704 6168 3713 6168 3768 6154 C 3874 6126 3942 6073 3982 5985 C 4014 5915 4012 5795 3976 5635 C 3928 5424 3930 5253 3982 5143 C 4036 5028 4120 5008 4230 5083 L 4275 5114 L 4233 5064 C 4179 4999 4110 4936 4072 4916 C 4001 4880 3956 4903 3876 5014 C 3784 5143 3649 5238 3505 5275 C 3368 5310 3332 5280 3458 5235 C 3618 5179 3739 5086 3860 4925 C 3899 4873 3942 4822 3957 4810 C 4033 4750 4135 4818 4329 5060 C 4375 5118 4407 5160 4399 5153 C 4387 5143 4385 5151 4387 5200 C 4387 5232 4393 5267 4399 5279 C 4422 5321 4402 5298 4356 5230 C 4331 5192 4308 5160 4305 5160 C 4303 5160 4307 5175 4315 5193 C 4342 5257 4360 5351 4380 5521 C 4412 5794 4444 5888 4538 5992 C 4601 6060 4666 6103 4764 6141 C 4895 6192 4992 6203 5325 6204 C 5572 6206 5633 6209 5670 6222 C 5695 6231 5719 6238 5723 6239 C 5727 6240 5728 6213 5724 6181 z M 2489 5433 C 2565 5283 2696 5197 2887 5170 C 3009 5154 3152 5180 3238 5234 L 3273 5256 L 3322 5208 C 3349 5181 3435 5112 3513 5053 C 3733 4886 3794 4818 3841 4685 C 3874 4591 3880 4543 3861 4527 C 3852 4519 3778 4471 3695 4419 C 3589 4353 3521 4303 3465 4248 C 3421 4205 3384 4170 3382 4170 C 3380 4170 3364 4181 3348 4196 C 3297 4238 3230 4267 3080 4310 C 3001 4332 2913 4363 2886 4378 C 2855 4394 2788 4453 2715 4527 C 2621 4623 2582 4655 2535 4677 C 2341 4766 2120 4672 1965 4432 C 1917 4357 1875 4264 1865 4207 C 1861 4186 1854 4172 1850 4177 C 1836 4191 1800 4368 1793 4448 C 1786 4544 1802 4645 1838 4724 C 1853 4757 1904 4837 1952 4902 C 2000 4968 2052 5044 2069 5073 C 2102 5131 2150 5266 2150 5302 C 2150 5320 2161 5330 2200 5348 C 2267 5379 2358 5465 2400 5538 L 2435 5597 L 2447 5544 C 2454 5515 2473 5465 2489 5433 z M 4612 3700 C 4733 3663 4789 3609 4908 3415 C 4973 3310 5026 3273 5155 3245 C 5337 3205 5400 3157 5400 3056 C 5400 2961 5332 2869 5190 2775 C 5069 2694 4911 2639 4567 2556 C 4545 2551 4539 2544 4542 2527 C 4547 2493 4591 2479 4703 2475 C 5006 2466 5155 2408 5216 2275 C 5253 2196 5245 2143 5187 2081 C 5169 2063 5092 1997 5015 1935 C 4828 1786 4766 1718 4700 1589 C 4589 1372 4530 1301 4440 1280 C 4382 1266 4340 1273 4283 1306 C 4213 1346 4189 1387 4174 1493 C 4166 1543 4139 1664 4112 1760 L 4065 1935 L 4062 1825 C 4058 1685 4074 1568 4110 1459 C 4143 1358 4140 1323 4089 1265 C 4049 1220 4004 1206 3914 1212 C 3796 1220 3730 1258 3589 1400 C 3458 1532 3420 1557 3235 1630 C 3073 1694 3017 1725 2979 1767 C 2926 1828 2947 1880 3052 1951 C 3085 1973 3113 1990 3116 1988 C 3118 1986 3115 1968 3110 1949 C 3097 1906 3097 1789 3109 1757 C 3118 1734 3124 1732 3222 1728 C 3358 1722 3403 1702 3494 1607 C 3533 1567 3559 1542 3553 1550 C 3547 1558 3540 1606 3538 1657 C 3535 1737 3537 1747 3550 1737 C 3558 1731 3536 1756 3500 1793 C 3465 1830 3422 1866 3405 1875 L 3373 1889 L 3467 1986 C 3554 2075 3561 2085 3558 2118 C 3556 2146 3550 2155 3533 2160 C 3514 2164 3523 2172 3585 2203 C 3657 2240 3660 2244 3660 2277 C 3660 2311 3659 2311 3628 2305 C 3570 2294 3468 2258 3353 2210 C 3281 2179 3237 2166 3228 2171 C 3221 2176 3167 2196 3108 2215 C 2992 2254 2929 2293 2905 2340 C 2890 2370 2890 2370 2917 2381 C 2932 2387 3002 2407 3073 2426 C 3266 2477 3327 2516 3377 2618 C 3403 2671 3405 2683 3405 2795 C 3404 2902 3401 2924 3374 3000 C 3340 3097 3288 3182 3230 3234 C 3208 3254 3190 3274 3190 3279 C 3190 3296 3250 3339 3288 3350 C 3385 3377 3606 3347 3725 3291 C 3871 3223 3945 3112 3990 2891 C 4006 2815 4026 2736 4036 2714 C 4045 2693 4056 2653 4060 2625 C 4066 2575 4066 2576 4074 2659 C 4079 2707 4079 2745 4073 2749 C 4068 2752 4049 2814 4031 2885 C 4004 2991 3998 3034 3997 3120 C 3997 3282 4042 3384 4174 3527 C 4256 3615 4343 3677 4419 3701 C 4492 3724 4534 3724 4612 3700 z M 828 3396 C 831 3393 815 3390 793 3390 C 766 3390 747 3396 736 3409 C 718 3428 719 3428 770 3415 C 799 3407 825 3399 828 3396 z M 1806 2029 C 1850 1984 1927 1939 1982 1925 C 2011 1917 2026 1885 2055 1760 C 2079 1656 2076 1653 2014 1715 C 1894 1832 1664 1942 1466 1975 L 1428 1981 L 1466 2002 C 1526 2033 1608 2100 1654 2152 L 1694 2199 L 1727 2137 C 1745 2103 1781 2054 1806 2029 z M 3547 2098 C 3545 2085 3543 2093 3543 2115 C 3542 2137 3544 2147 3547 2138 C 3549 2128 3549 2110 3547 2098 z M 4135 1570 C 4139 1528 4138 1521 4130 1538 C 4116 1571 4080 1752 4081 1787 C 4082 1824 4127 1641 4135 1570 z" stroke-linecap="round" />
</g>
		<g transform="matrix(0.13 0 0 -0.13 -541.07 285.05)"  >
<path style="stroke: none; stroke-width: 1; stroke-dasharray: none; stroke-linecap: butt; stroke-dashoffset: 0; stroke-linejoin: miter; stroke-miterlimit: 4; fill: rgb(249,191,133); fill-rule: nonzero; opacity: 1;" vector-effect="non-scaling-stroke"  transform=" translate(-2341.27, -4240.79)" d="M 2313 4552 C 2263 4525 2115 4395 2070 4339 C 2044 4306 2030 4278 2030 4259 C 2030 4243 2032 4230 2034 4230 C 2036 4230 2064 4242 2096 4257 C 2176 4294 2256 4295 2324 4260 C 2381 4231 2466 4143 2510 4065 C 2527 4035 2553 3996 2567 3980 C 2593 3948 2659 3897 2646 3918 C 2634 3938 2639 4314 2651 4319 C 2657 4321 2645 4332 2624 4344 C 2599 4358 2566 4394 2529 4450 C 2497 4497 2458 4543 2443 4552 C 2408 4574 2354 4574 2313 4552 z" stroke-linecap="round" />
</g>
		<g transform="matrix(0.13 0 0 -0.13 -214 319.43)"  >
<path style="stroke: none; stroke-width: 1; stroke-dasharray: none; stroke-linecap: butt; stroke-dashoffset: 0; stroke-linejoin: miter; stroke-miterlimit: 4; fill: rgb(249,191,133); fill-rule: nonzero; opacity: 1;" vector-effect="non-scaling-stroke"  transform=" translate(-4794.29, -3982.89)" d="M 4110 4526 C 4110 4503 4200 4463 4392 4400 C 4664 4311 4935 4161 5088 4015 C 5178 3930 5278 3783 5392 3566 C 5458 3439 5476 3413 5478 3434 C 5483 3473 5456 3548 5385 3695 C 5235 4006 5050 4187 4716 4352 C 4590 4413 4487 4448 4280 4499 C 4211 4516 4145 4532 4133 4536 C 4116 4541 4110 4538 4110 4526 z" stroke-linecap="round" />
</g>
		<g transform="matrix(0.13 0 0 -0.13 -258.24 302.35)"  >
<path style="stroke: none; stroke-width: 1; stroke-dasharray: none; stroke-linecap: butt; stroke-dashoffset: 0; stroke-linejoin: miter; stroke-miterlimit: 4; fill: rgb(249,191,133); fill-rule: nonzero; opacity: 1;" vector-effect="non-scaling-stroke"  transform=" translate(-4462.5, -4111.01)" d="M 4030 4438 C 4030 4325 4073 4156 4121 4091 C 4186 4001 4267 3966 4500 3925 C 4715 3887 4788 3861 4860 3796 L 4895 3765 L 4867 3796 C 4840 3826 4838 3833 4837 3929 C 4835 4013 4838 4030 4850 4031 C 4858 4031 4826 4046 4779 4065 C 4659 4112 4548 4126 4408 4110 C 4279 4095 4235 4100 4175 4134 C 4105 4175 4051 4290 4050 4400 C 4050 4419 4045 4442 4040 4450 C 4032 4462 4030 4459 4030 4438 z" stroke-linecap="round" />
</g>
		<g transform="matrix(0.13 0 0 -0.13 -562.69 349.84)"  >
<path style="stroke: none; stroke-width: 1; stroke-dasharray: none; stroke-linecap: butt; stroke-dashoffset: 0; stroke-linejoin: miter; stroke-miterlimit: 4; fill: rgb(249,191,133); fill-rule: nonzero; opacity: 1;" vector-effect="non-scaling-stroke"  transform=" translate(-2179.11, -3754.85)" d="M 2280 3869 C 2244 3824 2169 3743 2113 3690 C 2056 3636 2010 3587 2010 3580 C 2010 3560 2048 3589 2151 3687 C 2273 3805 2353 3902 2348 3930 C 2346 3945 2331 3932 2280 3869 z" stroke-linecap="round" />
</g>
		<g transform="matrix(0.13 0 0 -0.13 -566.23 365.88)"  >
<path style="stroke: none; stroke-width: 1; stroke-dasharray: none; stroke-linecap: butt; stroke-dashoffset: 0; stroke-linejoin: miter; stroke-miterlimit: 4; fill: rgb(249,191,133); fill-rule: nonzero; opacity: 1;" vector-effect="non-scaling-stroke"  transform=" translate(-2152.6, -3634.55)" d="M 2310 3751 C 2295 3714 2189 3612 2130 3577 C 2105 3563 2063 3546 2035 3539 C 2008 3533 1979 3526 1973 3524 C 1966 3522 1963 3514 1967 3504 C 1983 3461 2136 3520 2229 3605 C 2288 3659 2340 3733 2340 3762 C 2340 3790 2324 3783 2310 3751 z" stroke-linecap="round" />
</g>
		<g transform="matrix(0.13 0 0 -0.13 -657.24 377.22)"  >
<path style="stroke: none; stroke-width: 1; stroke-dasharray: none; stroke-linecap: butt; stroke-dashoffset: 0; stroke-linejoin: miter; stroke-miterlimit: 4; fill: rgb(249,191,133); fill-rule: nonzero; opacity: 1;" vector-effect="non-scaling-stroke"  transform=" translate(-1470, -3549.52)" d="M 1340 3631 C 1340 3620 1349 3609 1360 3605 C 1386 3597 1475 3535 1529 3488 C 1571 3451 1600 3440 1600 3460 C 1600 3465 1561 3508 1514 3556 C 1448 3623 1426 3640 1420 3629 C 1412 3617 1406 3618 1381 3633 C 1344 3655 1340 3654 1340 3631 z" stroke-linecap="round" />
</g>
		<g transform="matrix(0.13 0 0 -0.13 -518.57 377.09)"  >
<path style="stroke: none; stroke-width: 1; stroke-dasharray: none; stroke-linecap: butt; stroke-dashoffset: 0; stroke-linejoin: miter; stroke-miterlimit: 4; fill: rgb(249,191,133); fill-rule: nonzero; opacity: 1;" vector-effect="non-scaling-stroke"  transform=" translate(-2510, -3550.47)" d="M 2595 3599 C 2573 3595 2513 3591 2463 3591 C 2388 3590 2370 3587 2370 3575 C 2370 3557 2408 3537 2480 3517 C 2544 3499 2660 3485 2645 3497 C 2640 3501 2635 3525 2635 3550 C 2635 3575 2640 3598 2645 3602 C 2657 3611 2650 3611 2595 3599 z" stroke-linecap="round" />
</g>
		<g transform="matrix(0.13 0 0 -0.13 -602.19 389.13)"  >
<path style="stroke: none; stroke-width: 1; stroke-dasharray: none; stroke-linecap: butt; stroke-dashoffset: 0; stroke-linejoin: miter; stroke-miterlimit: 4; fill: rgb(249,191,133); fill-rule: nonzero; opacity: 1;" vector-effect="non-scaling-stroke"  transform=" translate(-1882.84, -3460.16)" d="M 1910 3513 C 1892 3486 1862 3445 1844 3420 C 1824 3392 1814 3369 1819 3362 C 1826 3351 1893 3450 1939 3538 C 1958 3574 1946 3563 1910 3513 z" stroke-linecap="round" />
</g>
		<g transform="matrix(0.13 0 0 -0.13 -581.33 442.43)"  >
<path style="stroke: none; stroke-width: 1; stroke-dasharray: none; stroke-linecap: butt; stroke-dashoffset: 0; stroke-linejoin: miter; stroke-miterlimit: 4; fill: rgb(249,191,133); fill-rule: nonzero; opacity: 1;" vector-effect="non-scaling-stroke"  transform=" translate(-2039.32, -3060.43)" d="M 1680 3429 C 1590 3403 1570 3377 1570 3286 C 1570 3160 1638 3087 1747 3096 C 1776 3098 1811 3105 1826 3110 C 1841 3116 1853 3119 1854 3118 C 1866 3095 1934 3020 1943 3020 C 1990 3020 2195 2894 2405 2736 C 2477 2682 2506 2665 2508 2676 C 2513 2698 2491 2719 2376 2808 C 2252 2903 2093 2999 2001 3035 C 1962 3050 1919 3075 1904 3091 L 1877 3119 L 1921 3160 C 1964 3199 1977 3202 2022 3185 C 2031 3181 2037 3185 2037 3194 C 2037 3203 2021 3215 2003 3221 C 1984 3227 1966 3238 1963 3246 C 1957 3263 1939 3260 1880 3232 C 1810 3199 1795 3202 1796 3249 L 1798 3288 L 1749 3295 C 1697 3302 1688 3313 1719 3330 C 1745 3343 1783 3343 1798 3328 C 1817 3309 1824 3327 1810 3357 C 1803 3373 1797 3396 1797 3410 C 1796 3433 1779 3449 1755 3448 C 1750 3448 1716 3439 1680 3429 z M 1636 3313 C 1633 3303 1635 3278 1639 3258 C 1649 3216 1645 3212 1618 3237 C 1598 3255 1595 3282 1610 3311 C 1623 3335 1643 3336 1636 3313 z" stroke-linecap="round" />
</g>
		<g transform="matrix(0.13 0 0 -0.13 -594.91 410.64)"  >
<path style="stroke: none; stroke-width: 1; stroke-dasharray: none; stroke-linecap: butt; stroke-dashoffset: 0; stroke-linejoin: miter; stroke-miterlimit: 4; fill: rgb(249,191,133); fill-rule: nonzero; opacity: 1;" vector-effect="non-scaling-stroke"  transform=" translate(-1937.45, -3298.87)" d="M 1897 3314 C 1876 3293 1892 3280 1938 3280 C 1975 3280 1987 3284 1987 3295 C 1987 3303 1978 3310 1966 3310 C 1954 3310 1936 3313 1925 3316 C 1914 3319 1901 3318 1897 3314 z" stroke-linecap="round" />
</g>
		<g transform="matrix(0.13 0 0 -0.13 -757.92 494.05)"  >
<path style="stroke: none; stroke-width: 1; stroke-dasharray: none; stroke-linecap: butt; stroke-dashoffset: 0; stroke-linejoin: miter; stroke-miterlimit: 4; fill: rgb(249,191,133); fill-rule: nonzero; opacity: 1;" vector-effect="non-scaling-stroke"  transform=" translate(-714.89, -2673.28)" d="M 780 3213 C 554 3187 404 3082 384 2937 C 370 2837 413 2775 544 2707 C 678 2638 731 2577 775 2440 C 799 2367 846 2273 880 2231 C 908 2198 996 2130 1012 2130 C 1016 2130 1020 2173 1020 2225 C 1020 2292 1024 2320 1032 2320 C 1038 2320 1017 2336 984 2355 C 895 2408 844 2469 785 2595 C 725 2723 698 2751 578 2811 C 451 2875 422 2921 478 2972 C 513 3005 536 3016 638 3051 C 753 3090 863 3110 974 3111 C 1024 3112 1055 3115 1044 3117 C 1028 3120 1021 3130 1018 3156 C 1014 3186 1016 3189 1035 3185 C 1052 3180 1052 3181 1039 3189 C 1005 3211 870 3223 780 3213 z" stroke-linecap="round" />
</g>
		<g transform="matrix(0.13 0 0 -0.13 -672.57 435.95)"  >
<path style="stroke: none; stroke-width: 1; stroke-dasharray: none; stroke-linecap: butt; stroke-dashoffset: 0; stroke-linejoin: miter; stroke-miterlimit: 4; fill: rgb(249,191,133); fill-rule: nonzero; opacity: 1;" vector-effect="non-scaling-stroke"  transform=" translate(-1355, -3109.02)" d="M 1361 3145 C 1284 3104 1260 3083 1260 3058 C 1260 3048 1262 3040 1263 3040 C 1265 3040 1304 3063 1350 3090 C 1396 3118 1437 3140 1442 3140 C 1446 3140 1450 3149 1450 3160 C 1450 3187 1435 3185 1361 3145 z" stroke-linecap="round" />
</g>
		<g transform="matrix(0.13 0 0 -0.13 -677.9 456.66)"  >
<path style="stroke: none; stroke-width: 1; stroke-dasharray: none; stroke-linecap: butt; stroke-dashoffset: 0; stroke-linejoin: miter; stroke-miterlimit: 4; fill: rgb(249,191,133); fill-rule: nonzero; opacity: 1;" vector-effect="non-scaling-stroke"  transform=" translate(-1315.06, -2953.71)" d="M 1510 3139 C 1486 3096 1485 3096 1482 3123 C 1480 3138 1475 3150 1470 3150 C 1465 3150 1428 3113 1388 3068 C 1295 2963 1176 2844 1126 2805 C 1095 2780 1089 2770 1094 2752 C 1101 2731 1102 2731 1133 2747 C 1192 2777 1229 2812 1329 2929 C 1383 2993 1439 3056 1454 3069 L 1480 3093 L 1451 3014 C 1420 2930 1388 2766 1397 2742 C 1400 2734 1418 2790 1437 2866 C 1456 2942 1487 3037 1506 3078 C 1546 3161 1549 3207 1510 3139 z" stroke-linecap="round" />
</g>
		<g transform="matrix(0.13 0 0 -0.13 -645.17 462.76)"  >
<path style="stroke: none; stroke-width: 1; stroke-dasharray: none; stroke-linecap: butt; stroke-dashoffset: 0; stroke-linejoin: miter; stroke-miterlimit: 4; fill: rgb(249,191,133); fill-rule: nonzero; opacity: 1;" vector-effect="non-scaling-stroke"  transform=" translate(-1560.53, -2907.92)" d="M 1557 2931 C 1553 2847 1551 2776 1553 2773 C 1561 2765 1572 2931 1568 3010 C 1566 3069 1563 3053 1557 2931 z" stroke-linecap="round" />
</g>
		<g transform="matrix(0.13 0 0 -0.13 -634.69 455.32)"  >
<path style="stroke: none; stroke-width: 1; stroke-dasharray: none; stroke-linecap: butt; stroke-dashoffset: 0; stroke-linejoin: miter; stroke-miterlimit: 4; fill: rgb(249,191,133); fill-rule: nonzero; opacity: 1;" vector-effect="non-scaling-stroke"  transform=" translate(-1639.13, -2963.72)" d="M 1656 3032 C 1629 2977 1600 2890 1600 2866 C 1600 2854 1611 2874 1624 2910 C 1637 2946 1655 2994 1665 3018 C 1687 3072 1680 3083 1656 3032 z" stroke-linecap="round" />
</g>
		<g transform="matrix(0.13 0 0 -0.13 -585.36 478.5)"  >
<path style="stroke: none; stroke-width: 1; stroke-dasharray: none; stroke-linecap: butt; stroke-dashoffset: 0; stroke-linejoin: miter; stroke-miterlimit: 4; fill: rgb(249,191,133); fill-rule: nonzero; opacity: 1;" vector-effect="non-scaling-stroke"  transform=" translate(-2009.13, -2789.9)" d="M 1740 3032 C 1740 3022 1762 3002 1795 2982 C 1928 2902 2061 2781 2190 2620 C 2268 2523 2275 2517 2278 2543 C 2285 2604 2148 2782 2011 2890 C 1927 2956 1775 3050 1753 3050 C 1746 3050 1740 3042 1740 3032 z" stroke-linecap="round" />
</g>
		<g transform="matrix(0.13 0 0 -0.13 -546.99 453.4)"  >
<path style="stroke: none; stroke-width: 1; stroke-dasharray: none; stroke-linecap: butt; stroke-dashoffset: 0; stroke-linejoin: miter; stroke-miterlimit: 4; fill: rgb(249,191,133); fill-rule: nonzero; opacity: 1;" vector-effect="non-scaling-stroke"  transform=" translate(-2296.89, -2978.11)" d="M 2060 3036 C 2060 3027 2083 3021 2143 3017 C 2239 3010 2376 2972 2462 2929 C 2510 2905 2524 2901 2531 2912 C 2536 2919 2534 2930 2527 2937 C 2507 2956 2369 3008 2279 3030 C 2180 3054 2060 3057 2060 3036 z" stroke-linecap="round" />
</g>
		<g transform="matrix(0.13 0 0 -0.13 -625.87 483.79)"  >
<path style="stroke: none; stroke-width: 1; stroke-dasharray: none; stroke-linecap: butt; stroke-dashoffset: 0; stroke-linejoin: miter; stroke-miterlimit: 4; fill: rgb(249,191,133); fill-rule: nonzero; opacity: 1;" vector-effect="non-scaling-stroke"  transform=" translate(-1705.25, -2750.18)" d="M 1702 2750 C 1702 2736 1704 2731 1707 2738 C 1709 2744 1709 2756 1707 2763 C 1704 2769 1702 2764 1702 2750 z" stroke-linecap="round" />
</g>
		<g transform="matrix(0.13 0 0 -0.13 -562.01 524.52)"  >
<path style="stroke: none; stroke-width: 1; stroke-dasharray: none; stroke-linecap: butt; stroke-dashoffset: 0; stroke-linejoin: miter; stroke-miterlimit: 4; fill: rgb(249,191,133); fill-rule: nonzero; opacity: 1;" vector-effect="non-scaling-stroke"  transform=" translate(-2184.23, -2444.76)" d="M 1829 2745 C 1823 2661 1834 2401 1845 2359 C 1871 2262 1924 2204 2034 2154 C 2085 2131 2101 2128 2169 2132 C 2225 2136 2259 2144 2296 2163 C 2353 2192 2478 2290 2525 2341 C 2542 2360 2546 2367 2535 2358 C 2515 2342 2515 2342 2517 2460 L 2519 2579 L 2457 2534 C 2291 2412 2140 2381 2006 2444 C 1912 2487 1887 2527 1875 2648 C 1870 2696 1862 2728 1849 2743 C 1831 2764 1831 2764 1829 2745 z" stroke-linecap="round" />
</g>
		<g transform="matrix(0.13 0 0 -0.13 -621.24 499.79)"  >
<path style="stroke: none; stroke-width: 1; stroke-dasharray: none; stroke-linecap: butt; stroke-dashoffset: 0; stroke-linejoin: miter; stroke-miterlimit: 4; fill: rgb(249,191,133); fill-rule: nonzero; opacity: 1;" vector-effect="non-scaling-stroke"  transform=" translate(-1740, -2630.22)" d="M 1730 2645 C 1730 2640 1735 2628 1740 2620 C 1745 2612 1750 2610 1750 2615 C 1750 2621 1745 2632 1740 2640 C 1735 2648 1730 2651 1730 2645 z" stroke-linecap="round" />
</g>
		<g transform="matrix(0.13 0 0 -0.13 -445.64 216.48)"  >
<path style="stroke: none; stroke-width: 1; stroke-dasharray: none; stroke-linecap: butt; stroke-dashoffset: 0; stroke-linejoin: miter; stroke-miterlimit: 4; fill: rgb(249,191,133); fill-rule: nonzero; opacity: 1;" vector-effect="non-scaling-stroke"  transform=" translate(-3056.99, -4755)" d="M 2593 5155 C 2605 5066 2664 4821 2688 4762 C 2749 4609 2899 4509 3138 4464 C 3426 4408 3496 4385 3507 4341 L 3513 4315 L 3521 4345 C 3549 4447 3460 4515 3225 4570 C 3061 4609 2982 4634 2900 4675 C 2759 4746 2700 4829 2656 5020 C 2641 5083 2620 5149 2609 5165 L 2588 5195 L 2593 5155 z" stroke-linecap="round" />
</g>
		<g transform="matrix(0.13 0 0 -0.13 -441.82 194.41)"  >
<path style="stroke: none; stroke-width: 1; stroke-dasharray: none; stroke-linecap: butt; stroke-dashoffset: 0; stroke-linejoin: miter; stroke-miterlimit: 4; fill: rgb(249,191,133); fill-rule: nonzero; opacity: 1;" vector-effect="non-scaling-stroke"  transform=" translate(-3085.63, -4920.55)" d="M 2890 5079 C 2890 5006 3095 4817 3240 4756 L 3275 4742 L 3270 4821 C 3266 4885 3268 4900 3280 4903 C 3288 4904 3257 4916 3210 4929 C 3099 4959 3038 4991 2975 5051 C 2919 5104 2890 5113 2890 5079 z" stroke-linecap="round" />
</g>
		<g transform="matrix(0.13 0 0 -0.13 -268.62 412.72)"  >
<path style="stroke: none; stroke-width: 1; stroke-dasharray: none; stroke-linecap: butt; stroke-dashoffset: 0; stroke-linejoin: miter; stroke-miterlimit: 4; fill: rgb(249,191,133); fill-rule: nonzero; opacity: 1;" vector-effect="non-scaling-stroke"  transform=" translate(-4384.65, -3283.26)" d="M 4473 3633 C 4301 3573 4108 3213 4111 2961 C 4111 2913 4113 2908 4122 2930 C 4156 3013 4177 3046 4262 3145 C 4314 3206 4376 3272 4400 3292 C 4473 3355 4569 3376 4633 3344 C 4654 3333 4661 3332 4653 3341 C 4635 3359 4634 3625 4652 3614 C 4659 3610 4660 3611 4656 3618 C 4647 3632 4584 3650 4545 3649 C 4529 3649 4496 3642 4473 3633 z" stroke-linecap="round" />
</g>
		<g transform="matrix(0.13 0 0 -0.13 -385.96 437.15)"  >
<path style="stroke: none; stroke-width: 1; stroke-dasharray: none; stroke-linecap: butt; stroke-dashoffset: 0; stroke-linejoin: miter; stroke-miterlimit: 4; fill: rgb(249,191,133); fill-rule: nonzero; opacity: 1;" vector-effect="non-scaling-stroke"  transform=" translate(-3504.62, -3099.98)" d="M 3465 3255 C 3443 3242 3408 3222 3387 3210 C 3353 3191 3349 3185 3355 3162 C 3362 3133 3486 3001 3536 2970 C 3553 2959 3586 2944 3608 2936 L 3649 2921 L 3647 3081 C 3646 3181 3649 3240 3655 3240 C 3661 3241 3649 3249 3630 3260 C 3580 3287 3514 3285 3465 3255 z" stroke-linecap="round" />
</g>
		<g transform="matrix(0.13 0 0 -0.13 -259.34 466.59)"  >
<path style="stroke: none; stroke-width: 1; stroke-dasharray: none; stroke-linecap: butt; stroke-dashoffset: 0; stroke-linejoin: miter; stroke-miterlimit: 4; fill: rgb(249,191,133); fill-rule: nonzero; opacity: 1;" vector-effect="non-scaling-stroke"  transform=" translate(-4454.22, -2879.17)" d="M 4575 3076 C 4307 2874 4190 2739 4175 2615 L 4170 2575 L 4183 2616 C 4215 2711 4290 2790 4530 2977 C 4708 3115 4743 3150 4738 3178 C 4736 3194 4709 3178 4575 3076 z" stroke-linecap="round" />
</g>
		<g transform="matrix(0.13 0 0 -0.13 -265.91 485.85)"  >
<path style="stroke: none; stroke-width: 1; stroke-dasharray: none; stroke-linecap: butt; stroke-dashoffset: 0; stroke-linejoin: miter; stroke-miterlimit: 4; fill: rgb(249,191,133); fill-rule: nonzero; opacity: 1;" vector-effect="non-scaling-stroke"  transform=" translate(-4405, -2734.77)" d="M 4478 2839 C 4423 2794 4280 2624 4280 2603 C 4280 2592 4325 2630 4405 2710 C 4474 2779 4530 2843 4530 2852 C 4530 2877 4521 2874 4478 2839 z" stroke-linecap="round" />
</g>
		<g transform="matrix(0.13 0 0 -0.13 -257.12 495.68)"  >
<path style="stroke: none; stroke-width: 1; stroke-dasharray: none; stroke-linecap: butt; stroke-dashoffset: 0; stroke-linejoin: miter; stroke-miterlimit: 4; fill: rgb(249,191,133); fill-rule: nonzero; opacity: 1;" vector-effect="non-scaling-stroke"  transform=" translate(-4470.91, -2661.05)" d="M 4456 2671 C 4435 2650 4420 2625 4422 2617 C 4426 2595 4520 2665 4520 2691 C 4520 2721 4498 2714 4456 2671 z" stroke-linecap="round" />
</g>
		<g transform="matrix(0.13 0 0 -0.13 -330.61 501.15)"  >
<path style="stroke: none; stroke-width: 1; stroke-dasharray: none; stroke-linecap: butt; stroke-dashoffset: 0; stroke-linejoin: miter; stroke-miterlimit: 4; fill: rgb(249,191,133); fill-rule: nonzero; opacity: 1;" vector-effect="non-scaling-stroke"  transform=" translate(-3919.69, -2619.98)" d="M 3885 2668 C 3892 2646 3949 2550 3955 2550 C 3964 2550 3950 2587 3924 2636 C 3895 2691 3873 2708 3885 2668 z" stroke-linecap="round" />
</g>
		<g transform="matrix(0.13 0 0 -0.13 -307.18 528.32)"  >
<path style="stroke: none; stroke-width: 1; stroke-dasharray: none; stroke-linecap: butt; stroke-dashoffset: 0; stroke-linejoin: miter; stroke-miterlimit: 4; fill: rgb(249,191,133); fill-rule: nonzero; opacity: 1;" vector-effect="non-scaling-stroke"  transform=" translate(-4095.45, -2416.25)" d="M 4213 2598 C 4198 2574 4182 2553 4179 2550 C 4176 2547 4170 2528 4166 2508 C 4159 2469 4146 2459 4136 2485 C 4133 2493 4119 2505 4106 2511 C 4092 2518 4079 2532 4077 2544 C 4073 2564 4073 2564 4071 2543 C 4070 2526 4064 2520 4046 2520 C 4007 2520 3992 2510 3968 2472 C 3949 2441 3945 2421 3945 2355 C 3946 2268 3963 2220 4001 2199 C 4028 2185 4056 2193 4106 2229 L 4147 2259 L 4158 2364 C 4167 2450 4176 2482 4202 2532 C 4234 2594 4252 2640 4244 2640 C 4242 2640 4228 2621 4213 2598 z M 4040 2350 C 4040 2337 4035 2332 4025 2336 C 4013 2341 4012 2346 4021 2356 C 4036 2375 4040 2374 4040 2350 z" stroke-linecap="round" />
</g>
		<g transform="matrix(0.13 0 0 -0.13 -349.12 509.08)"  >
<path style="stroke: none; stroke-width: 1; stroke-dasharray: none; stroke-linecap: butt; stroke-dashoffset: 0; stroke-linejoin: miter; stroke-miterlimit: 4; fill: rgb(249,191,133); fill-rule: nonzero; opacity: 1;" vector-effect="non-scaling-stroke"  transform=" translate(-3780.89, -2560.55)" d="M 3710 2620 C 3710 2607 3803 2516 3833 2499 C 3872 2477 3847 2515 3788 2569 C 3721 2630 3710 2638 3710 2620 z" stroke-linecap="round" />
</g>
		<g transform="matrix(0.13 0 0 -0.13 -360.51 515.35)"  >
<path style="stroke: none; stroke-width: 1; stroke-dasharray: none; stroke-linecap: butt; stroke-dashoffset: 0; stroke-linejoin: miter; stroke-miterlimit: 4; fill: rgb(249,191,133); fill-rule: nonzero; opacity: 1;" vector-effect="non-scaling-stroke"  transform=" translate(-3695.48, -2513.52)" d="M 3492 2588 C 3498 2549 3719 2446 3849 2422 C 3894 2414 3900 2415 3900 2430 C 3900 2441 3886 2451 3858 2459 C 3834 2466 3800 2480 3782 2491 C 3763 2502 3745 2508 3740 2505 C 3736 2503 3680 2525 3616 2555 C 3552 2585 3497 2610 3494 2610 C 3491 2610 3490 2600 3492 2588 z" stroke-linecap="round" />
</g>
		<g transform="matrix(0.13 0 0 -0.13 -432.24 537.89)"  >
<path style="stroke: none; stroke-width: 1; stroke-dasharray: none; stroke-linecap: butt; stroke-dashoffset: 0; stroke-linejoin: miter; stroke-miterlimit: 4; fill: rgb(249,191,133); fill-rule: nonzero; opacity: 1;" vector-effect="non-scaling-stroke"  transform=" translate(-3157.5, -2344.44)" d="M 3050 2391 C 3050 2353 3135 2300 3216 2287 L 3258 2280 L 3262 2319 L 3265 2358 L 3203 2363 C 3169 2367 3123 2378 3101 2390 C 3052 2415 3050 2415 3050 2391 z" stroke-linecap="round" />
</g>
		<g transform="matrix(0.13 0 0 -0.13 -287.92 533.93)"  >
<path style="stroke: none; stroke-width: 1; stroke-dasharray: none; stroke-linecap: butt; stroke-dashoffset: 0; stroke-linejoin: miter; stroke-miterlimit: 4; fill: rgb(249,191,133); fill-rule: nonzero; opacity: 1;" vector-effect="non-scaling-stroke"  transform=" translate(-4239.92, -2374.19)" d="M 4230 2391 C 4205 2384 4188 2350 4210 2350 C 4228 2350 4280 2380 4280 2390 C 4280 2401 4267 2401 4230 2391 z" stroke-linecap="round" />
</g>
		<g transform="matrix(0.13 0 0 -0.13 -242.25 543.24)"  >
<path style="stroke: none; stroke-width: 1; stroke-dasharray: none; stroke-linecap: butt; stroke-dashoffset: 0; stroke-linejoin: miter; stroke-miterlimit: 4; fill: rgb(249,191,133); fill-rule: nonzero; opacity: 1;" vector-effect="non-scaling-stroke"  transform=" translate(-4582.39, -2304.37)" d="M 4573 2359 C 4550 2336 4558 2286 4587 2259 C 4602 2246 4609 2242 4603 2250 C 4596 2259 4590 2289 4588 2318 C 4586 2361 4583 2369 4573 2359 z" stroke-linecap="round" />
</g>
		<g transform="matrix(0.13 0 0 -0.13 -348.6 538.6)"  >
<path style="stroke: none; stroke-width: 1; stroke-dasharray: none; stroke-linecap: butt; stroke-dashoffset: 0; stroke-linejoin: miter; stroke-miterlimit: 4; fill: rgb(249,191,133); fill-rule: nonzero; opacity: 1;" vector-effect="non-scaling-stroke"  transform=" translate(-3784.82, -2339.17)" d="M 3753 2353 C 3712 2348 3707 2320 3748 2320 C 3786 2320 3850 2339 3850 2350 C 3850 2360 3816 2361 3753 2353 z" stroke-linecap="round" />
</g>
		<g transform="matrix(0.13 0 0 -0.13 -257.24 557.07)"  >
<path style="stroke: none; stroke-width: 1; stroke-dasharray: none; stroke-linecap: butt; stroke-dashoffset: 0; stroke-linejoin: miter; stroke-miterlimit: 4; fill: rgb(249,191,133); fill-rule: nonzero; opacity: 1;" vector-effect="non-scaling-stroke"  transform=" translate(-4470, -2200.6)" d="M 4310 2265 C 4310 2246 4324 2239 4450 2195 C 4508 2175 4570 2150 4588 2139 C 4629 2116 4630 2116 4630 2139 C 4630 2160 4564 2192 4430 2235 C 4383 2250 4341 2266 4336 2271 C 4321 2284 4310 2282 4310 2265 z" stroke-linecap="round" />
</g>
		<g transform="matrix(0.13 0 0 -0.13 -353.36 601.82)"  >
<path style="stroke: none; stroke-width: 1; stroke-dasharray: none; stroke-linecap: butt; stroke-dashoffset: 0; stroke-linejoin: miter; stroke-miterlimit: 4; fill: rgb(249,191,133); fill-rule: nonzero; opacity: 1;" vector-effect="non-scaling-stroke"  transform=" translate(-3749.07, -1865.02)" d="M 3795 2182 C 3747 2137 3734 2130 3732 2144 C 3729 2157 3716 2140 3690 2094 C 3669 2056 3631 2005 3606 1980 C 3564 1939 3544 1890 3570 1890 C 3592 1890 3649 1953 3680 2012 C 3699 2047 3725 2084 3739 2095 C 3753 2105 3783 2131 3804 2152 L 3843 2190 L 3837 2138 C 3830 2072 3813 2020 3740 1850 C 3678 1704 3655 1633 3646 1555 C 3635 1467 3655 1473 3674 1562 C 3696 1666 3800 1928 3834 1965 C 3848 1980 3860 1997 3860 2001 C 3860 2006 3865 2010 3870 2010 C 3876 2010 3880 1986 3880 1958 C 3880 1906 3907 1829 3929 1816 C 3948 1804 3941 1845 3915 1902 C 3887 1962 3883 2027 3905 2069 C 3918 2096 3916 2110 3899 2110 C 3895 2110 3890 2100 3886 2088 C 3883 2075 3870 2052 3857 2036 L 3833 2007 L 3847 2086 C 3854 2129 3859 2181 3858 2202 L 3855 2238 L 3795 2182 z" stroke-linecap="round" />
</g>
		<g transform="matrix(0.13 0 0 -0.13 -270.78 567.84)"  >
<path style="stroke: none; stroke-width: 1; stroke-dasharray: none; stroke-linecap: butt; stroke-dashoffset: 0; stroke-linejoin: miter; stroke-miterlimit: 4; fill: rgb(249,191,133); fill-rule: nonzero; opacity: 1;" vector-effect="non-scaling-stroke"  transform=" translate(-4368.45, -2119.84)" d="M 4180 2216 C 4180 2192 4251 2145 4404 2069 C 4539 2002 4569 1996 4553 2037 C 4549 2047 4310 2172 4188 2228 C 4183 2230 4180 2225 4180 2216 z" stroke-linecap="round" />
</g>
		<g transform="matrix(0.13 0 0 -0.13 -270.65 607.79)"  >
<path style="stroke: none; stroke-width: 1; stroke-dasharray: none; stroke-linecap: butt; stroke-dashoffset: 0; stroke-linejoin: miter; stroke-miterlimit: 4; fill: rgb(249,191,133); fill-rule: nonzero; opacity: 1;" vector-effect="non-scaling-stroke"  transform=" translate(-4369.42, -1820.24)" d="M 4110 2199 C 4110 2188 4125 2167 4143 2152 C 4200 2106 4329 1978 4433 1866 L 4534 1758 L 4488 1714 C 4449 1678 4434 1670 4403 1670 C 4350 1670 4318 1700 4267 1795 C 4229 1868 4222 1875 4195 1875 C 4172 1875 4164 1870 4162 1853 C 4158 1825 4234 1593 4271 1519 C 4350 1361 4464 1394 4583 1611 C 4598 1639 4607 1659 4602 1656 C 4596 1653 4590 1664 4588 1680 C 4584 1704 4586 1708 4598 1698 C 4608 1689 4614 1690 4621 1701 C 4634 1722 4632 1732 4606 1765 C 4587 1789 4584 1799 4592 1820 C 4601 1844 4600 1844 4584 1828 C 4567 1811 4558 1819 4390 1983 C 4240 2132 4138 2220 4116 2220 C 4113 2220 4110 2211 4110 2199 z" stroke-linecap="round" />
</g>
		<g transform="matrix(0.13 0 0 -0.13 -626.53 -663.06)"  >
<path style="stroke: none; stroke-width: 1; stroke-dasharray: none; stroke-linecap: butt; stroke-dashoffset: 0; stroke-linejoin: miter; stroke-miterlimit: 4; fill: rgb(249,191,133); fill-rule: nonzero; opacity: 1;" vector-effect="non-scaling-stroke"  transform=" translate(-1700.34, -11351.57)" d="M 1612 11383 C 1614 11372 1634 11362 1675 11353 C 1707 11346 1745 11330 1757 11318 C 1785 11292 1797 11301 1784 11338 C 1772 11373 1718 11400 1657 11400 C 1617 11400 1609 11397 1612 11383 z" stroke-linecap="round" />
</g>
		<g transform="matrix(0.13 0 0 -0.13 -642.45 -649.89)"  >
<path style="stroke: none; stroke-width: 1; stroke-dasharray: none; stroke-linecap: butt; stroke-dashoffset: 0; stroke-linejoin: miter; stroke-miterlimit: 4; fill: rgb(249,191,133); fill-rule: nonzero; opacity: 1;" vector-effect="non-scaling-stroke"  transform=" translate(-1580.94, -11252.81)" d="M 1555 11279 C 1483 11267 1425 11245 1422 11229 C 1420 11217 1444 11215 1567 11218 C 1648 11220 1721 11223 1728 11225 C 1734 11228 1740 11240 1740 11253 C 1740 11272 1733 11279 1709 11284 C 1670 11292 1619 11290 1555 11279 z" stroke-linecap="round" />
</g>
		<g transform="matrix(0.13 0 0 -0.13 -656.57 -623.66)"  >
<path style="stroke: none; stroke-width: 1; stroke-dasharray: none; stroke-linecap: butt; stroke-dashoffset: 0; stroke-linejoin: miter; stroke-miterlimit: 4; fill: rgb(249,191,133); fill-rule: nonzero; opacity: 1;" vector-effect="non-scaling-stroke"  transform=" translate(-1475, -11056.12)" d="M 1538 11166 C 1404 11118 1160 10972 1160 10938 C 1160 10926 1165 10920 1173 10923 C 1179 10926 1236 10951 1298 10979 C 1360 11008 1452 11042 1502 11057 C 1580 11079 1606 11082 1691 11078 L 1790 11073 L 1790 11102 C 1790 11121 1780 11142 1761 11161 C 1735 11187 1725 11190 1668 11190 C 1628 11190 1581 11181 1538 11166 z" stroke-linecap="round" />
</g>
		<g transform="matrix(0.13 0 0 -0.13 -433.93 -515.74)"  >
<path style="stroke: none; stroke-width: 1; stroke-dasharray: none; stroke-linecap: butt; stroke-dashoffset: 0; stroke-linejoin: miter; stroke-miterlimit: 4; fill: rgb(249,191,133); fill-rule: nonzero; opacity: 1;" vector-effect="non-scaling-stroke"  transform=" translate(-3144.8, -10246.72)" d="M 3047 10453 C 3030 10437 3045 10417 3110 10364 C 3206 10286 3219 10263 3230 10140 C 3242 9996 3254 10001 3247 10147 C 3239 10308 3221 10344 3098 10433 C 3058 10462 3056 10463 3047 10453 z" stroke-linecap="round" />
</g>
		<g transform="matrix(0.13 0 0 -0.13 -393.81 -528.17)"  >
<path style="stroke: none; stroke-width: 1; stroke-dasharray: none; stroke-linecap: butt; stroke-dashoffset: 0; stroke-linejoin: miter; stroke-miterlimit: 4; fill: rgb(249,191,133); fill-rule: nonzero; opacity: 1;" vector-effect="non-scaling-stroke"  transform=" translate(-3445.71, -10339.9)" d="M 3417 10443 C 3405 10432 3409 10421 3438 10395 C 3463 10372 3465 10365 3462 10300 C 3460 10257 3463 10230 3470 10230 C 3487 10230 3483 10402 3464 10428 C 3449 10450 3429 10456 3417 10443 z" stroke-linecap="round" />
</g>
		<g transform="matrix(0.13 0 0 -0.13 -409.92 -524.83)"  >
<path style="stroke: none; stroke-width: 1; stroke-dasharray: none; stroke-linecap: butt; stroke-dashoffset: 0; stroke-linejoin: miter; stroke-miterlimit: 4; fill: rgb(249,191,133); fill-rule: nonzero; opacity: 1;" vector-effect="non-scaling-stroke"  transform=" translate(-3324.91, -10314.83)" d="M 3270 10417 C 3270 10404 3282 10383 3296 10369 C 3331 10337 3360 10274 3360 10227 C 3360 10204 3364 10191 3370 10195 C 3387 10206 3381 10293 3359 10340 C 3337 10388 3315 10417 3288 10431 C 3273 10439 3270 10437 3270 10417 z" stroke-linecap="round" />
</g>
		<g transform="matrix(0.13 0 0 -0.13 -453.98 -510.94)"  >
<path style="stroke: none; stroke-width: 1; stroke-dasharray: none; stroke-linecap: butt; stroke-dashoffset: 0; stroke-linejoin: miter; stroke-miterlimit: 4; fill: rgb(249,191,133); fill-rule: nonzero; opacity: 1;" vector-effect="non-scaling-stroke"  transform=" translate(-2994.45, -10210.71)" d="M 2850 10406 C 2850 10386 2863 10374 2917 10344 C 3055 10267 3106 10196 3117 10069 C 3126 9959 3143 9972 3138 10086 C 3131 10249 3076 10335 2937 10401 C 2862 10436 2850 10437 2850 10406 z" stroke-linecap="round" />
</g>
		<g transform="matrix(0.13 0 0 -0.13 -398.4 -241.07)"  >
<path style="stroke: none; stroke-width: 1; stroke-dasharray: none; stroke-linecap: butt; stroke-dashoffset: 0; stroke-linejoin: miter; stroke-miterlimit: 4; fill: rgb(249,191,133); fill-rule: nonzero; opacity: 1;" vector-effect="non-scaling-stroke"  transform=" translate(-3411.31, -8186.69)" d="M 3760 9085 C 3593 9033 3511 8781 3621 8655 C 3693 8574 3803 8588 3839 8683 C 3851 8715 3853 8760 3843 8785 C 3838 8799 3834 8795 3826 8769 C 3817 8741 3807 8732 3772 8721 C 3682 8693 3599 8739 3615 8810 C 3624 8851 3673 8906 3724 8932 C 3786 8964 3884 8968 3944 8941 C 4017 8909 4064 8867 4101 8798 C 4135 8735 4135 8735 4134 8605 C 4133 8491 4130 8465 4106 8395 C 4047 8222 3963 8082 3850 7970 C 3756 7875 3680 7835 3495 7780 C 3418 7757 3322 7728 3283 7715 C 3243 7702 3210 7693 3210 7695 C 3210 7697 3218 7721 3229 7747 C 3285 7890 3300 8100 3262 8217 C 3223 8340 3165 8410 3060 8459 C 3012 8482 2992 8485 2904 8485 C 2809 8485 2801 8483 2754 8455 C 2686 8412 2655 8356 2655 8270 C 2655 8217 2660 8196 2682 8158 C 2732 8073 2813 8043 2894 8079 C 2938 8098 2941 8102 2938 8132 C 2935 8163 2933 8164 2865 8177 C 2827 8184 2782 8195 2765 8201 C 2734 8214 2690 8248 2690 8260 C 2690 8264 2718 8282 2753 8301 C 2809 8331 2822 8334 2895 8334 C 3154 8331 3287 8181 3250 7935 C 3238 7857 3209 7756 3184 7709 C 3177 7694 3149 7670 3123 7654 C 3053 7613 2982 7542 2952 7485 C 2933 7446 2926 7417 2923 7355 L 2920 7275 L 2933 7332 C 2965 7474 3093 7553 3428 7640 C 3683 7706 3814 7782 3935 7933 C 4089 8125 4185 8424 4165 8649 C 4137 8974 3973 9150 3760 9085 z" stroke-linecap="round" />
</g>
		<g transform="matrix(0.13 0 0 -0.13 -729.79 15.41)"  >
<path style="stroke: none; stroke-width: 1; stroke-dasharray: none; stroke-linecap: butt; stroke-dashoffset: 0; stroke-linejoin: miter; stroke-miterlimit: 4; fill: rgb(249,191,133); fill-rule: nonzero; opacity: 1;" vector-effect="non-scaling-stroke"  transform=" translate(-925.86, -6263.05)" d="M 387 7925 C 284 7905 240 7886 240 7861 C 240 7850 244 7839 249 7836 C 254 7832 323 7823 402 7815 C 480 7807 562 7795 584 7788 C 746 7737 705 7564 464 7280 C 349 7144 310 7089 270 7011 C 216 6903 197 6763 220 6653 C 229 6615 227 6591 215 6545 C 169 6367 219 6129 338 5953 C 435 5811 548 5729 889 5557 C 1221 5390 1340 5306 1459 5157 C 1574 5011 1629 4868 1638 4685 C 1644 4580 1645 4572 1651 4620 C 1660 4692 1645 4851 1621 4954 C 1568 5176 1453 5385 1316 5507 C 1228 5585 1115 5646 898 5734 C 584 5862 502 5909 394 6021 C 324 6095 288 6153 266 6229 C 247 6292 245 6398 261 6455 L 272 6495 L 289 6470 C 356 6367 436 6320 545 6320 C 662 6321 739 6371 789 6480 C 822 6553 830 6680 806 6745 C 766 6848 653 6885 511 6841 C 428 6815 370 6779 317 6720 L 272 6670 L 266 6703 C 259 6741 272 6827 295 6890 C 320 6962 353 7010 491 7182 C 628 7353 687 7454 715 7565 C 732 7634 734 7738 719 7793 C 707 7839 661 7892 617 7913 C 568 7936 475 7941 387 7925 z M 720 6702 C 792 6666 796 6609 732 6538 C 683 6484 611 6450 541 6450 C 462 6450 413 6469 357 6520 L 308 6566 L 369 6622 C 416 6666 445 6684 493 6699 C 573 6724 673 6726 720 6702 z" stroke-linecap="round" />
</g>
		<g transform="matrix(0.13 0 0 -0.13 -524.09 -42.91)"  >
<path style="stroke: none; stroke-width: 1; stroke-dasharray: none; stroke-linecap: butt; stroke-dashoffset: 0; stroke-linejoin: miter; stroke-miterlimit: 4; fill: rgb(249,191,133); fill-rule: nonzero; opacity: 1;" vector-effect="non-scaling-stroke"  transform=" translate(-2468.65, -6700.43)" d="M 2466 6718 C 2463 6705 2461 6684 2461 6670 C 2462 6655 2466 6663 2471 6689 C 2480 6736 2477 6757 2466 6718 z" stroke-linecap="round" />
</g>
		<g transform="matrix(0.13 0 0 -0.13 -548.08 -33.53)"  >
<path style="stroke: none; stroke-width: 1; stroke-dasharray: none; stroke-linecap: butt; stroke-dashoffset: 0; stroke-linejoin: miter; stroke-miterlimit: 4; fill: rgb(249,191,133); fill-rule: nonzero; opacity: 1;" vector-effect="non-scaling-stroke"  transform=" translate(-2288.67, -6630.09)" d="M 2271 6672 C 2270 6648 2295 6580 2305 6580 C 2308 6580 2306 6589 2300 6599 C 2295 6610 2286 6636 2281 6657 C 2275 6681 2272 6687 2271 6672 z" stroke-linecap="round" />
</g>
		<g transform="matrix(0.13 0 0 -0.13 -585.35 0.28)"  >
<path style="stroke: none; stroke-width: 1; stroke-dasharray: none; stroke-linecap: butt; stroke-dashoffset: 0; stroke-linejoin: miter; stroke-miterlimit: 4; fill: rgb(249,191,133); fill-rule: nonzero; opacity: 1;" vector-effect="non-scaling-stroke"  transform=" translate(-2009.19, -6376.53)" d="M 2236 6521 C 2171 6449 2017 6392 1864 6383 C 1772 6378 1760 6375 1760 6358 C 1760 6342 1769 6340 1863 6340 C 1976 6340 2081 6359 2146 6390 C 2180 6407 2193 6409 2210 6400 C 2238 6385 2232 6372 2182 6333 C 2124 6289 2039 6259 1945 6252 C 1884 6247 1865 6242 1865 6230 C 1865 6211 1947 6205 2020 6218 C 2048 6223 2073 6224 2075 6220 C 2083 6207 2160 6231 2160 6246 C 2160 6253 2168 6264 2178 6269 C 2188 6274 2209 6297 2224 6319 C 2247 6352 2251 6366 2246 6394 C 2242 6413 2234 6431 2227 6433 C 2219 6436 2223 6446 2238 6463 C 2254 6479 2260 6497 2258 6515 L 2255 6542 L 2236 6521 z" stroke-linecap="round" />
</g>
		<g transform="matrix(0.13 0 0 -0.13 -424.72 -7.62)"  >
<path style="stroke: none; stroke-width: 1; stroke-dasharray: none; stroke-linecap: butt; stroke-dashoffset: 0; stroke-linejoin: miter; stroke-miterlimit: 4; fill: rgb(249,191,133); fill-rule: nonzero; opacity: 1;" vector-effect="non-scaling-stroke"  transform=" translate(-3213.89, -6435.8)" d="M 3187 6503 C 3152 6489 3149 6485 3152 6453 C 3154 6425 3163 6412 3195 6390 C 3217 6374 3246 6359 3260 6355 C 3277 6351 3281 6352 3272 6358 C 3255 6369 3250 6508 3265 6514 C 3271 6517 3264 6519 3250 6519 C 3236 6519 3208 6512 3187 6503 z" stroke-linecap="round" />
</g>
		<g transform="matrix(0.13 0 0 -0.13 -492.57 1.14)"  >
<path style="stroke: none; stroke-width: 1; stroke-dasharray: none; stroke-linecap: butt; stroke-dashoffset: 0; stroke-linejoin: miter; stroke-miterlimit: 4; fill: rgb(249,191,133); fill-rule: nonzero; opacity: 1;" vector-effect="non-scaling-stroke"  transform=" translate(-2705, -6370.11)" d="M 2703 6383 C 2679 6375 2660 6362 2660 6354 C 2660 6336 2661 6337 2710 6356 C 2732 6365 2750 6378 2750 6386 C 2750 6394 2749 6400 2748 6399 C 2746 6399 2726 6392 2703 6383 z" stroke-linecap="round" />
</g>
		<g transform="matrix(0.13 0 0 -0.13 -507.91 16.99)"  >
<path style="stroke: none; stroke-width: 1; stroke-dasharray: none; stroke-linecap: butt; stroke-dashoffset: 0; stroke-linejoin: miter; stroke-miterlimit: 4; fill: rgb(249,191,133); fill-rule: nonzero; opacity: 1;" vector-effect="non-scaling-stroke"  transform=" translate(-2590, -6251.2)" d="M 2550 6261 C 2550 6248 2558 6244 2598 6235 C 2623 6230 2630 6232 2630 6243 C 2630 6257 2602 6270 2568 6270 C 2558 6270 2550 6266 2550 6261 z" stroke-linecap="round" />
</g>
		<g transform="matrix(0.13 0 0 -0.13 -568.66 38.5)"  >
<path style="stroke: none; stroke-width: 1; stroke-dasharray: none; stroke-linecap: butt; stroke-dashoffset: 0; stroke-linejoin: miter; stroke-miterlimit: 4; fill: rgb(249,191,133); fill-rule: nonzero; opacity: 1;" vector-effect="non-scaling-stroke"  transform=" translate(-2134.34, -6089.86)" d="M 2176 6217 C 2182 6176 2180 6170 2156 6155 C 2142 6145 2130 6129 2130 6117 C 2130 6098 2131 6097 2150 6115 C 2175 6138 2184 6130 2175 6090 C 2166 6049 2126 6004 2079 5979 C 2017 5948 2031 5909 2096 5930 C 2145 5946 2179 6002 2194 6089 C 2200 6128 2211 6165 2218 6172 C 2234 6188 2233 6205 2217 6191 C 2199 6177 2190 6187 2190 6221 C 2190 6236 2186 6252 2180 6255 C 2174 6259 2172 6245 2176 6217 z" stroke-linecap="round" />
</g>
		<g transform="matrix(0.13 0 0 -0.13 -479.84 39.79)"  >
<path style="stroke: none; stroke-width: 1; stroke-dasharray: none; stroke-linecap: butt; stroke-dashoffset: 0; stroke-linejoin: miter; stroke-miterlimit: 4; fill: rgb(249,191,133); fill-rule: nonzero; opacity: 1;" vector-effect="non-scaling-stroke"  transform=" translate(-2800.48, -6080.2)" d="M 2622 6139 C 2624 6121 2637 6111 2675 6097 C 2764 6063 2914 6013 2948 6005 C 2976 5999 2980 6001 2980 6020 C 2980 6047 2916 6076 2764 6120 C 2704 6137 2647 6154 2637 6157 C 2622 6161 2619 6157 2622 6139 z" stroke-linecap="round" />
</g>
		<g transform="matrix(0.13 0 0 -0.13 -539.26 35.04)"  >
<path style="stroke: none; stroke-width: 1; stroke-dasharray: none; stroke-linecap: butt; stroke-dashoffset: 0; stroke-linejoin: miter; stroke-miterlimit: 4; fill: rgb(249,191,133); fill-rule: nonzero; opacity: 1;" vector-effect="non-scaling-stroke"  transform=" translate(-2354.81, -6115.86)" d="M 2351 6114 C 2351 6103 2354 6100 2357 6108 C 2360 6115 2359 6124 2356 6127 C 2353 6131 2350 6125 2351 6114 z" stroke-linecap="round" />
</g>
		<g transform="matrix(0.13 0 0 -0.13 -477.36 99.52)"  >
<path style="stroke: none; stroke-width: 1; stroke-dasharray: none; stroke-linecap: butt; stroke-dashoffset: 0; stroke-linejoin: miter; stroke-miterlimit: 4; fill: rgb(249,191,133); fill-rule: nonzero; opacity: 1;" vector-effect="non-scaling-stroke"  transform=" translate(-2819.1, -5632.24)" d="M 2587 5891 C 2576 5838 2579 5750 2594 5679 C 2632 5501 2761 5369 2913 5353 C 2964 5348 3077 5358 3055 5366 C 3049 5369 3047 5423 3050 5515 L 3055 5660 L 3020 5653 C 3001 5648 2949 5645 2905 5645 C 2835 5646 2817 5650 2764 5677 C 2689 5716 2636 5775 2620 5838 C 2599 5921 2594 5929 2587 5891 z" stroke-linecap="round" />
</g>
		<g transform="matrix(0.13 0 0 -0.13 -94.58 649.62)"  >
<path style="stroke: none; stroke-width: 1; stroke-dasharray: none; stroke-linecap: butt; stroke-dashoffset: 0; stroke-linejoin: miter; stroke-miterlimit: 4; fill: rgb(249,191,133); fill-rule: nonzero; opacity: 1;" vector-effect="non-scaling-stroke"  transform=" translate(-5689.95, -1506.45)" d="M 6605 2786 C 6566 2769 6523 2718 6498 2660 C 6477 2612 6410 2332 6410 2293 C 6410 2251 6446 2284 6517 2392 C 6591 2504 6671 2573 6768 2610 C 6836 2636 6931 2636 6985 2611 C 7032 2589 7084 2537 7099 2497 C 7119 2445 7112 2350 7085 2291 C 7011 2133 6896 2069 6653 2049 C 6436 2031 6247 2059 6092 2131 C 5931 2205 5831 2295 5700 2480 C 5659 2538 5598 2613 5564 2646 C 5504 2706 5412 2760 5371 2760 C 5333 2760 5349 2735 5403 2708 C 5431 2694 5476 2664 5502 2641 C 5555 2594 5626 2502 5616 2493 C 5613 2489 5617 2475 5627 2461 C 5654 2418 5845 2199 5901 2145 C 6054 1997 6179 1815 6230 1664 C 6259 1578 6264 1548 6268 1434 C 6273 1290 6263 1210 6225 1099 C 6189 993 6145 925 6045 824 C 5931 709 5885 689 5730 682 C 5605 677 5516 695 5428 742 C 5379 768 5330 813 5330 833 C 5330 835 5358 845 5392 855 C 5604 914 5690 1002 5690 1157 C 5690 1240 5675 1283 5635 1320 C 5612 1341 5599 1345 5547 1344 C 5471 1344 5422 1320 5356 1254 C 5290 1186 5258 1116 5252 1023 C 5249 982 5242 947 5236 944 C 5230 942 5133 925 5020 906 C 4663 845 4533 794 4399 661 C 4289 551 4242 449 4225 276 C 4217 200 4233 190 4243 264 C 4247 289 4262 338 4278 372 C 4351 532 4493 637 4729 706 C 4790 724 5234 820 5257 820 C 5258 820 5266 796 5275 768 C 5353 528 5553 389 5742 444 C 5838 472 6035 631 6132 760 C 6195 843 6254 964 6282 1065 C 6300 1135 6303 1172 6304 1350 C 6304 1520 6300 1571 6283 1650 C 6260 1757 6224 1853 6174 1942 C 6155 1975 6140 2003 6140 2004 C 6140 2005 6171 1996 6208 1984 C 6313 1949 6440 1930 6576 1930 C 6913 1930 7091 2053 7147 2325 C 7184 2506 7117 2674 6980 2745 C 6888 2793 6674 2816 6605 2786 z M 5630 1220 C 5707 1179 5647 1079 5506 1014 C 5456 991 5328 950 5306 950 C 5294 950 5309 1018 5330 1061 C 5384 1166 5559 1258 5630 1220 z" stroke-linecap="round" />
</g>
		<g transform="matrix(0.13 0 0 -0.13 106.01 524.88)"  >
<path style="stroke: none; stroke-width: 1; stroke-dasharray: none; stroke-linecap: butt; stroke-dashoffset: 0; stroke-linejoin: miter; stroke-miterlimit: 4; fill: rgb(249,191,133); fill-rule: nonzero; opacity: 1;" vector-effect="non-scaling-stroke"  transform=" translate(-7194.34, -2442.02)" d="M 7060 2721 C 7060 2715 7085 2694 7116 2674 C 7186 2627 7256 2558 7279 2511 C 7319 2431 7313 2373 7256 2281 C 7211 2207 7199 2177 7210 2159 C 7217 2148 7225 2151 7251 2175 C 7298 2219 7322 2281 7327 2375 C 7335 2488 7315 2552 7251 2622 C 7187 2691 7060 2757 7060 2721 z" stroke-linecap="round" />
</g>
		<g transform="matrix(0.13 0 0 -0.13 135.91 535.38)"  >
<path style="stroke: none; stroke-width: 1; stroke-dasharray: none; stroke-linecap: butt; stroke-dashoffset: 0; stroke-linejoin: miter; stroke-miterlimit: 4; fill: rgb(249,191,133); fill-rule: nonzero; opacity: 1;" vector-effect="non-scaling-stroke"  transform=" translate(-7418.63, -2363.26)" d="M 7383 2604 C 7386 2588 7402 2537 7419 2490 C 7464 2367 7461 2322 7405 2214 C 7357 2123 7352 2093 7385 2098 C 7481 2115 7504 2347 7428 2542 C 7397 2623 7373 2656 7383 2604 z" stroke-linecap="round" />
</g>
		<g transform="matrix(0.13 0 0 -0.13 -109.3 530.63)"  >
<path style="stroke: none; stroke-width: 1; stroke-dasharray: none; stroke-linecap: butt; stroke-dashoffset: 0; stroke-linejoin: miter; stroke-miterlimit: 4; fill: rgb(249,191,133); fill-rule: nonzero; opacity: 1;" vector-effect="non-scaling-stroke"  transform=" translate(-5579.51, -2398.92)" d="M 5577 2414 C 5573 2410 5570 2400 5570 2391 C 5570 2380 5573 2379 5581 2387 C 5587 2393 5591 2403 5588 2410 C 5586 2416 5581 2418 5577 2414 z" stroke-linecap="round" />
</g>
		<g transform="matrix(0.13 0 0 -0.13 -701.33 677.82)"  >
<path style="stroke: none; stroke-width: 1; stroke-dasharray: none; stroke-linecap: butt; stroke-dashoffset: 0; stroke-linejoin: miter; stroke-miterlimit: 4; fill: rgb(249,191,133); fill-rule: nonzero; opacity: 1;" vector-effect="non-scaling-stroke"  transform=" translate(-1139.32, -1295)" d="M 497 2385 C 482 2377 444 2348 413 2321 C 325 2242 242 2211 124 2210 C 90 2210 48 2207 31 2204 C 4 2198 0 2193 0 2164 C 0 2129 -1 2130 130 2028 C 178 1990 193 1970 245 1864 C 278 1798 320 1721 338 1692 C 383 1622 513 1502 585 1464 L 643 1432 L 604 1420 C 513 1391 430 1320 386 1232 C 325 1109 320 971 371 710 C 402 550 405 520 403 362 C 403 268 404 190 407 190 C 409 190 441 208 478 230 C 629 322 792 337 1155 294 C 1294 278 1466 276 1528 290 C 1643 317 1728 387 1785 503 C 1806 547 1838 644 1865 753 C 1929 1004 1962 1064 2062 1114 C 2164 1165 2245 1139 2257 1052 C 2267 979 2284 989 2277 1063 C 2270 1139 2252 1179 2213 1210 C 2159 1253 2042 1216 1970 1133 C 1921 1077 1893 1008 1850 831 C 1801 635 1776 576 1708 504 C 1644 436 1589 407 1487 386 C 1391 366 1306 366 1105 386 C 781 419 613 407 489 344 C 462 331 439 320 437 320 C 435 320 433 375 432 442 C 432 530 424 605 405 705 C 390 782 376 886 373 936 C 359 1166 475 1310 727 1373 C 777 1385 803 1386 862 1378 C 959 1364 1205 1375 1305 1397 C 1379 1414 1385 1417 1388 1442 C 1391 1465 1386 1471 1363 1477 C 1348 1481 1215 1484 1068 1482 C 762 1479 701 1487 591 1545 C 451 1619 355 1728 254 1930 C 209 2020 178 2069 154 2088 C 135 2103 120 2118 120 2121 C 120 2125 150 2129 188 2132 C 282 2139 338 2167 429 2254 C 502 2323 519 2334 575 2342 C 588 2344 596 2354 598 2373 C 601 2398 599 2400 563 2400 C 542 2400 512 2393 497 2385 z" stroke-linecap="round" />
</g>
		<g transform="matrix(0.13 0 0 -0.13 147.08 572.3)"  >
<path style="stroke: none; stroke-width: 1; stroke-dasharray: none; stroke-linecap: butt; stroke-dashoffset: 0; stroke-linejoin: miter; stroke-miterlimit: 4; fill: rgb(249,191,133); fill-rule: nonzero; opacity: 1;" vector-effect="non-scaling-stroke"  transform=" translate(-7502.42, -2086.39)" d="M 7517 2148 C 7522 2086 7521 2080 7496 2055 C 7462 2021 7460 1977 7493 1982 C 7523 1986 7541 2040 7534 2106 C 7525 2190 7510 2226 7517 2148 z" stroke-linecap="round" />
</g>
		<g transform="matrix(0.13 0 0 -0.13 164.05 581.97)"  >
<path style="stroke: none; stroke-width: 1; stroke-dasharray: none; stroke-linecap: butt; stroke-dashoffset: 0; stroke-linejoin: miter; stroke-miterlimit: 4; fill: rgb(249,191,133); fill-rule: nonzero; opacity: 1;" vector-effect="non-scaling-stroke"  transform=" translate(-7629.7, -2013.83)" d="M 7668 2079 C 7664 2065 7642 2033 7620 2008 C 7579 1961 7573 1946 7590 1935 C 7623 1915 7683 2006 7678 2068 C 7675 2102 7674 2103 7668 2079 z" stroke-linecap="round" />
</g>
		<g transform="matrix(0.13 0 0 -0.13 184.7 620.69)"  >
<path style="stroke: none; stroke-width: 1; stroke-dasharray: none; stroke-linecap: butt; stroke-dashoffset: 0; stroke-linejoin: miter; stroke-miterlimit: 4; fill: rgb(249,191,133); fill-rule: nonzero; opacity: 1;" vector-effect="non-scaling-stroke"  transform=" translate(-7784.55, -1723.49)" d="M 6250 1915 C 6250 1906 6277 1888 6314 1871 C 6349 1855 6445 1803 6526 1754 C 6852 1561 6994 1516 7280 1517 C 7486 1518 7592 1536 8030 1645 C 8549 1774 8670 1795 8920 1794 C 9081 1794 9197 1782 9298 1754 C 9319 1748 9321 1750 9318 1771 C 9314 1800 9223 1848 9105 1882 C 9033 1903 9005 1905 8820 1905 C 8575 1905 8537 1899 8124 1795 C 7433 1621 7241 1606 6862 1700 C 6679 1745 6612 1769 6480 1835 C 6399 1876 6270 1930 6255 1930 C 6252 1930 6250 1923 6250 1915 z" stroke-linecap="round" />
</g>
		<g transform="matrix(0.13 0 0 -0.13 554.67 714.48)"  >
<path style="stroke: none; stroke-width: 1; stroke-dasharray: none; stroke-linecap: butt; stroke-dashoffset: 0; stroke-linejoin: miter; stroke-miterlimit: 4; fill: rgb(249,191,133); fill-rule: nonzero; opacity: 1;" vector-effect="non-scaling-stroke"  transform=" translate(-10559.29, -1020.03)" d="M 8565 1640 C 8505 1636 8425 1632 8388 1631 C 8322 1630 8320 1629 8320 1605 C 8320 1591 8326 1578 8333 1575 C 8339 1573 8498 1567 8685 1561 C 9056 1549 9130 1542 9295 1503 C 9601 1431 9911 1296 10210 1105 C 10378 998 10550 911 10645 885 C 10740 859 10946 855 11052 878 L 11139 896 L 11149 869 C 11173 800 11278 722 11384 694 C 11437 680 11606 677 11650 689 C 11671 695 11681 689 11717 650 C 11739 625 11780 592 11807 577 C 11872 542 11983 517 12038 524 C 12077 529 12084 527 12114 497 C 12179 432 12274 402 12440 393 C 12552 388 12684 399 12763 421 C 12793 429 12801 436 12798 451 C 12795 471 12786 471 12585 474 C 12363 477 12274 492 12179 541 L 12140 561 L 12162 590 C 12193 632 12200 742 12175 770 C 12165 781 12149 790 12139 790 C 12114 790 12072 735 12065 692 C 12054 630 12054 630 12000 630 C 11920 630 11816 658 11770 691 L 11729 721 L 11759 746 C 11811 790 11833 851 11834 954 L 11835 1045 L 11789 1044 C 11700 1043 11651 979 11650 864 C 11650 803 11650 802 11619 796 C 11496 772 11300 821 11232 893 L 11210 916 L 11303 963 C 11415 1020 11495 1088 11535 1161 C 11609 1297 11544 1481 11413 1506 C 11366 1515 11288 1485 11241 1440 C 11163 1364 11110 1213 11110 1066 C 11110 992 11115 995 10995 979 C 10831 958 10638 996 10460 1085 C 10413 1108 10310 1169 10230 1220 C 9864 1452 9456 1602 9081 1640 C 8970 1651 8742 1651 8565 1640 z M 11469 1382 C 11483 1372 11501 1351 11508 1337 C 11552 1247 11405 1099 11205 1030 L 11150 1011 L 11144 1036 C 11133 1081 11146 1184 11170 1229 C 11200 1289 11277 1369 11325 1392 C 11373 1414 11431 1410 11469 1382 z M 11810 940 C 11810 901 11712 801 11689 816 C 11665 831 11692 919 11727 939 C 11751 953 11810 953 11810 940 z M 12160 686 C 12160 668 12122 640 12097 640 C 12082 640 12081 643 12091 663 C 12098 675 12108 688 12114 692 C 12133 705 12160 701 12160 686 z" stroke-linecap="round" />
</g>
		<g transform="matrix(0.13 0 0 -0.13 -695.91 717.05)"  >
<path style="stroke: none; stroke-width: 1; stroke-dasharray: none; stroke-linecap: butt; stroke-dashoffset: 0; stroke-linejoin: miter; stroke-miterlimit: 4; fill: rgb(249,191,133); fill-rule: nonzero; opacity: 1;" vector-effect="non-scaling-stroke"  transform=" translate(-1179.98, -1000.75)" d="M 1761 1520 C 1705 1302 1665 1222 1570 1131 C 1475 1041 1358 975 1113 874 C 776 735 640 650 596 551 C 577 510 580 440 601 440 C 607 440 608 454 604 476 C 598 509 601 515 647 559 C 711 621 850 691 1075 775 C 1351 879 1475 947 1585 1057 C 1678 1150 1709 1217 1755 1424 C 1780 1536 1785 1613 1761 1520 z" stroke-linecap="round" />
</g>
		<g transform="matrix(0.13 0 0 -0.13 -485.33 749.82)"  >
<path style="stroke: none; stroke-width: 1; stroke-dasharray: none; stroke-linecap: butt; stroke-dashoffset: 0; stroke-linejoin: miter; stroke-miterlimit: 4; fill: rgb(249,191,133); fill-rule: nonzero; opacity: 1;" vector-effect="non-scaling-stroke"  transform=" translate(-2759.34, -755)" d="M 2580 1482 C 2580 1459 2586 1452 2618 1441 C 2851 1359 3045 1246 3172 1119 C 3234 1057 3257 1025 3293 949 C 3349 832 3364 767 3358 658 C 3353 552 3327 497 3220 356 C 3178 300 3133 237 3120 215 C 3061 114 3032 108 2926 174 C 2807 248 2680 307 2528 359 C 2358 417 2293 448 2247 493 C 2183 558 2160 639 2160 801 C 2160 866 2156 900 2149 900 C 2141 900 2139 849 2142 728 C 2147 534 2160 478 2213 408 C 2281 320 2362 274 2616 184 C 2749 138 2802 113 2868 68 C 2925 29 2989 0 3022 0 C 3056 0 3086 35 3146 148 C 3172 196 3215 265 3241 301 C 3346 444 3385 569 3377 735 C 3366 983 3252 1188 3037 1351 C 2904 1452 2755 1509 2628 1510 C 2582 1510 2580 1509 2580 1482 z" stroke-linecap="round" />
</g>
		<g transform="matrix(0.13 0 0 -0.13 189.83 714.92)"  >
<path style="stroke: none; stroke-width: 1; stroke-dasharray: none; stroke-linecap: butt; stroke-dashoffset: 0; stroke-linejoin: miter; stroke-miterlimit: 4; fill: rgb(249,191,133); fill-rule: nonzero; opacity: 1;" vector-effect="non-scaling-stroke"  transform=" translate(-7823.04, -1016.72)" d="M 8621 1429 C 8593 1388 8542 1316 8509 1267 C 8384 1089 8262 1009 8055 970 C 8022 963 7853 955 7680 950 C 7287 940 7202 925 7073 844 C 7008 802 6969 745 6962 681 C 6958 639 6961 629 6988 598 C 7032 549 7130 521 7130 558 C 7130 569 7110 584 7071 603 C 7002 635 6988 659 7017 699 C 7075 777 7201 830 7373 849 C 7426 855 7576 860 7707 860 C 7980 860 8093 873 8220 920 C 8393 982 8496 1090 8625 1342 C 8678 1445 8692 1482 8683 1490 C 8675 1499 8660 1484 8621 1429 z" stroke-linecap="round" />
</g>
		<g transform="matrix(0.13 0 0 -0.13 43.43 673.16)"  >
<path style="stroke: none; stroke-width: 1; stroke-dasharray: none; stroke-linecap: butt; stroke-dashoffset: 0; stroke-linejoin: miter; stroke-miterlimit: 4; fill: rgb(249,191,133); fill-rule: nonzero; opacity: 1;" vector-effect="non-scaling-stroke"  transform=" translate(-6725.04, -1329.95)" d="M 6569 1439 C 6551 1405 6562 1309 6589 1272 C 6638 1203 6746 1179 6810 1223 C 6828 1235 6852 1257 6863 1271 C 6883 1299 6899 1390 6884 1390 C 6879 1390 6864 1373 6850 1353 C 6809 1293 6736 1275 6662 1305 C 6596 1333 6580 1355 6587 1411 C 6593 1464 6587 1473 6569 1439 z" stroke-linecap="round" />
</g>
		<g transform="matrix(0.13 0 0 -0.13 63.94 682.1)"  >
<path style="stroke: none; stroke-width: 1; stroke-dasharray: none; stroke-linecap: butt; stroke-dashoffset: 0; stroke-linejoin: miter; stroke-miterlimit: 4; fill: rgb(249,191,133); fill-rule: nonzero; opacity: 1;" vector-effect="non-scaling-stroke"  transform=" translate(-6878.87, -1262.86)" d="M 7058 1357 C 7038 1316 7007 1266 6989 1245 C 6922 1169 6825 1144 6728 1177 C 6696 1188 6668 1195 6665 1192 C 6649 1176 6667 1156 6717 1133 C 6825 1083 6926 1105 7011 1197 C 7063 1252 7103 1344 7098 1398 C 7095 1431 7094 1430 7058 1357 z" stroke-linecap="round" />
</g>
		<g transform="matrix(0.13 0 0 -0.13 96.82 683.96)"  >
<path style="stroke: none; stroke-width: 1; stroke-dasharray: none; stroke-linecap: butt; stroke-dashoffset: 0; stroke-linejoin: miter; stroke-miterlimit: 4; fill: rgb(249,191,133); fill-rule: nonzero; opacity: 1;" vector-effect="non-scaling-stroke"  transform=" translate(-7125.42, -1248.97)" d="M 7221 1380 C 7218 1289 7150 1202 7063 1177 C 7020 1164 7015 1160 7012 1132 C 7009 1101 7010 1100 7049 1100 C 7102 1100 7138 1115 7178 1153 C 7228 1202 7256 1325 7230 1385 C 7222 1403 7221 1403 7221 1380 z" stroke-linecap="round" />
</g>
		<g transform="matrix(0.13 0 0 -0.13 121.95 683.36)"  >
<path style="stroke: none; stroke-width: 1; stroke-dasharray: none; stroke-linecap: butt; stroke-dashoffset: 0; stroke-linejoin: miter; stroke-miterlimit: 4; fill: rgb(249,191,133); fill-rule: nonzero; opacity: 1;" vector-effect="non-scaling-stroke"  transform=" translate(-7313.88, -1253.46)" d="M 7350 1364 C 7350 1313 7323 1240 7291 1199 C 7262 1164 7250 1120 7268 1120 C 7281 1120 7326 1172 7344 1207 C 7365 1250 7376 1351 7362 1376 C 7352 1393 7351 1391 7350 1364 z" stroke-linecap="round" />
</g>
		<g transform="matrix(0.13 0 0 -0.13 -747.99 724.52)"  >
<path style="stroke: none; stroke-width: 1; stroke-dasharray: none; stroke-linecap: butt; stroke-dashoffset: 0; stroke-linejoin: miter; stroke-miterlimit: 4; fill: rgb(249,191,133); fill-rule: nonzero; opacity: 1;" vector-effect="non-scaling-stroke"  transform=" translate(-789.36, -944.74)" d="M 877 1315 C 711 1269 560 1133 501 976 C 463 874 452 700 477 575 C 482 550 486 558 501 626 C 511 671 528 727 540 750 C 570 809 637 871 717 912 C 783 947 821 961 1000 1014 L 1085 1039 L 1082 1175 C 1079 1310 1079 1310 1102 1311 C 1121 1312 1120 1314 1095 1320 C 1047 1332 929 1329 877 1315 z" stroke-linecap="round" />
</g>
		<g transform="matrix(0.13 0 0 -0.13 -538.17 693)"  >
<path style="stroke: none; stroke-width: 1; stroke-dasharray: none; stroke-linecap: butt; stroke-dashoffset: 0; stroke-linejoin: miter; stroke-miterlimit: 4; fill: rgb(249,191,133); fill-rule: nonzero; opacity: 1;" vector-effect="non-scaling-stroke"  transform=" translate(-2362.99, -1181.14)" d="M 2210 1306 C 2210 1299 2235 1282 2266 1270 C 2334 1242 2415 1169 2470 1087 C 2500 1042 2510 1033 2504 1054 C 2499 1076 2500 1081 2510 1075 C 2533 1061 2486 1130 2432 1190 C 2395 1231 2358 1260 2308 1285 C 2231 1323 2210 1328 2210 1306 z" stroke-linecap="round" />
</g>
		<g transform="matrix(0.13 0 0 -0.13 -722.16 783.81)"  >
<path style="stroke: none; stroke-width: 1; stroke-dasharray: none; stroke-linecap: butt; stroke-dashoffset: 0; stroke-linejoin: miter; stroke-miterlimit: 4; fill: rgb(249,191,133); fill-rule: nonzero; opacity: 1;" vector-effect="non-scaling-stroke"  transform=" translate(-983.11, -500.06)" d="M 1060 566 C 1030 559 978 545 945 536 C 913 527 876 520 865 520 C 826 520 741 490 714 466 C 672 431 692 419 747 446 C 806 476 884 477 1013 451 C 1134 426 1207 419 1250 429 C 1269 434 1279 438 1273 439 C 1264 440 1260 460 1260 505 C 1260 566 1259 570 1238 570 C 1225 570 1193 572 1165 575 C 1138 577 1090 573 1060 566 z" stroke-linecap="round" />
</g>
		<g transform="matrix(0.13 0 0 -0.13 -681.79 773.79)"  >
<path style="stroke: none; stroke-width: 1; stroke-dasharray: none; stroke-linecap: butt; stroke-dashoffset: 0; stroke-linejoin: miter; stroke-miterlimit: 4; fill: rgb(249,191,133); fill-rule: nonzero; opacity: 1;" vector-effect="non-scaling-stroke"  transform=" translate(-1285.86, -575.19)" d="M 1278 573 C 1285 570 1294 571 1297 574 C 1301 577 1295 580 1284 579 C 1273 579 1270 576 1278 573 z" stroke-linecap="round" />
</g>
</g>
</g>
<g transform="matrix(NaN NaN NaN NaN 0 0)"  >
<g style=""   >
</g>
</g>
<g transform="matrix(NaN NaN NaN NaN 0 0)"  >
<g style=""   >
</g>
</g>
</svg>